<svg width="16" height="16" viewBox="0 0 16 16" fill="none" xmlns="http://www.w3.org/2000/svg">
<path d="M14.136 15.1969C14.4289 15.4898 14.9038 15.4898 15.1967 15.1969C15.4896 14.904 15.4896 14.4291 15.1967 14.1363L14.136 15.1969ZM12.3477 7.2156C12.3477 10.0501 10.0499 12.348 7.21536 12.348V13.848C10.8783 13.848 13.8477 10.8786 13.8477 7.2156H12.3477ZM7.21536 12.348C4.38084 12.348 2.08301 10.0501 2.08301 7.2156H0.583008C0.583008 10.8786 3.55241 13.848 7.21536 13.848V12.348ZM2.08301 7.2156C2.08301 4.38108 4.38084 2.08325 7.21536 2.08325V0.583252C3.55241 0.583252 0.583008 3.55266 0.583008 7.2156H2.08301ZM7.21536 2.08325C10.0499 2.08325 12.3477 4.38108 12.3477 7.2156H13.8477C13.8477 3.55266 10.8783 0.583252 7.21536 0.583252V2.08325ZM15.1967 14.1363L11.9123 10.8519L10.8516 11.9125L14.136 15.1969L15.1967 14.1363Z" fill="#40BFFF"/>
</svg>
