<svg width="212" height="289" viewBox="0 0 212 289" fill="none" xmlns="http://www.w3.org/2000/svg">
<path d="M103.357 96.0036C95.9953 101.969 88.4007 107.581 80.7629 113.099C73.1252 118.616 65.3838 123.978 57.6166 129.297C49.8494 134.616 41.9527 139.737 34.0215 144.814C30.0775 147.401 26.0731 149.849 22.0946 152.366C20.1322 153.717 17.9639 154.742 15.6737 155.401C14.4321 155.735 13.1599 155.943 11.8764 156.021C10.4341 156.14 8.98229 156.062 7.56124 155.789C6.44869 155.562 5.39173 155.119 4.45093 154.484C3.51012 153.85 2.70397 153.036 2.07864 152.089C1.45331 151.142 1.0211 150.082 0.806778 148.968C0.592456 147.855 0.600227 146.71 0.829652 145.599C0.829652 145.47 0.890064 145.306 0.924585 145.168C1.31183 143.772 1.89282 142.437 2.65063 141.202C3.28822 140.103 4.03724 139.071 4.88587 138.125C6.48452 136.359 8.35844 134.862 10.4351 133.694C14.4482 131.228 18.4267 128.719 22.457 126.306C30.4918 121.4 38.6042 116.633 46.7598 111.926C54.9153 107.219 63.1572 102.659 71.4681 98.2105C79.7791 93.7622 88.159 89.426 96.7547 85.4259C98.1416 84.8252 99.6982 84.7419 101.141 85.1911C102.585 85.6403 103.818 86.5922 104.618 87.8735C105.418 89.1548 105.73 90.6803 105.499 92.1725C105.267 93.6646 104.507 95.0242 103.357 96.0036Z" fill="#F25E7F"/>
<path d="M103.357 96.0036C95.9953 101.969 88.4007 107.581 80.7629 113.099C73.1252 118.616 65.3838 123.978 57.6166 129.297C49.8494 134.616 41.9527 139.737 34.0215 144.814C30.0775 147.401 26.0731 149.849 22.0946 152.366C20.1322 153.717 17.9639 154.742 15.6737 155.401C14.4321 155.735 13.1599 155.943 11.8764 156.021C10.4341 156.14 8.98229 156.062 7.56124 155.789C6.44869 155.562 5.39173 155.119 4.45093 154.484C3.51012 153.85 2.70397 153.036 2.07864 152.089C1.45331 151.142 1.0211 150.082 0.806778 148.968C0.592456 147.855 0.600227 146.71 0.829652 145.599C0.829652 145.47 0.890064 145.306 0.924585 145.168C1.31183 143.772 1.89282 142.437 2.65063 141.202C3.28822 140.103 4.03724 139.071 4.88587 138.125C6.48452 136.359 8.35844 134.862 10.4351 133.694C14.4482 131.228 18.4267 128.719 22.457 126.306C30.4918 121.4 38.6042 116.633 46.7598 111.926C54.9153 107.219 63.1572 102.659 71.4681 98.2105C79.7791 93.7622 88.159 89.426 96.7547 85.4259C98.1416 84.8252 99.6982 84.7419 101.141 85.1911C102.585 85.6403 103.818 86.5922 104.618 87.8735C105.418 89.1548 105.73 90.6803 105.499 92.1725C105.267 93.6646 104.507 95.0242 103.357 96.0036Z" fill="#F25E7F"/>
<path opacity="0.5" d="M103.357 96.0036C95.9953 101.969 88.4007 107.581 80.7629 113.099C73.1252 118.616 65.3838 123.978 57.6166 129.297C49.8494 134.616 41.9527 139.737 34.0215 144.814C30.0775 147.401 26.0731 149.849 22.0946 152.366C20.1322 153.717 17.9639 154.742 15.6737 155.401C14.4321 155.735 13.1599 155.943 11.8764 156.021C10.4341 156.14 8.98229 156.062 7.56124 155.789C6.44869 155.562 5.39173 155.119 4.45093 154.484C3.51012 153.85 2.70397 153.036 2.07864 152.089C1.45331 151.142 1.0211 150.082 0.806778 148.968C0.592456 147.855 0.600227 146.71 0.829652 145.599C0.829652 145.47 0.890064 145.306 0.924585 145.168C1.31183 143.772 1.89282 142.437 2.65063 141.202C3.28822 140.103 4.03724 139.071 4.88587 138.125C6.48452 136.359 8.35844 134.862 10.4351 133.694C14.4482 131.228 18.4267 128.719 22.457 126.306C30.4918 121.4 38.6042 116.633 46.7598 111.926C54.9153 107.219 63.1572 102.659 71.4681 98.2105C79.7791 93.7622 88.159 89.426 96.7547 85.4259C98.1416 84.8252 99.6982 84.7419 101.141 85.1911C102.585 85.6403 103.818 86.5922 104.618 87.8735C105.418 89.1548 105.73 90.6803 105.499 92.1725C105.267 93.6646 104.507 95.0242 103.357 96.0036Z" fill="white"/>
<path d="M71.5118 281.565L78.5541 279.936L75.2574 263.531L68.2151 265.16L71.5118 281.565Z" fill="#FFE3CE"/>
<path d="M24.0345 85.5292C23.0593 88.9775 22.1186 92.6069 21.2211 96.1586C20.3235 99.7104 19.495 103.314 18.8046 106.9C18.4249 108.685 18.0969 110.512 17.8121 112.193C17.5273 113.874 17.3633 115.642 17.2598 117.409C17.1692 119.166 17.1692 120.927 17.2598 122.685C17.2598 123.547 17.372 124.409 17.4583 125.323C17.5446 126.236 17.6999 127.107 17.8207 127.857L14.3686 129.159C13.9157 128.232 13.5264 127.276 13.2036 126.297C12.8659 125.356 12.5778 124.397 12.3405 123.426C11.8683 121.488 11.5452 119.517 11.374 117.529C11.2142 115.522 11.1854 113.506 11.2876 111.495C11.4257 109.46 11.6674 107.59 11.9349 105.693C12.4786 101.909 13.1777 98.1586 14.0062 94.4862C14.8347 90.8138 15.7322 87.1154 16.8973 83.3999L24.0345 85.5292Z" fill="#FFE3CE"/>
<path d="M13.8689 86.7187L21.1269 92.4946L25.4852 95.9429C25.4852 95.9429 25.9426 94.7273 26.4949 92.986C27.5478 89.6239 28.92 84.2962 27.9707 81.8479C26.4777 77.9686 23.6556 74.4686 20.0827 75.2444C17.0535 75.9255 13.8689 86.7187 13.8689 86.7187Z" fill="#263238"/>
<path d="M23.8992 281.617H31.1227L30.5617 264.893H23.3296L23.8992 281.617Z" fill="#FFE3CE"/>
<path d="M75.2601 263.539L77.0293 272.324L69.918 273.617L68.2092 265.169L75.2601 263.539Z" fill="#1C1208"/>
<path d="M23.3296 264.893H30.5617L30.8465 273.513H23.6144L23.3296 264.893Z" fill="#1C1208"/>
<path d="M46.8863 119.056C46.8863 119.056 42.692 168.616 38.3423 196.548C34.8298 219.108 32.0509 271.85 32.0509 271.85H22.2297C22.2297 271.85 17.5348 220.919 19.3213 198.574C23.8349 142.116 15.8692 132.116 25.3193 119.03L46.8863 119.056Z" fill="#F25E7F"/>
<path opacity="0.6" d="M46.8863 119.056C46.8863 119.056 42.692 168.616 38.3423 196.548C34.8298 219.108 32.0509 271.85 32.0509 271.85H22.2297C22.2297 271.85 17.5348 220.919 19.3213 198.574C23.8349 142.116 15.8692 132.116 25.3193 119.03L46.8863 119.056Z" fill="black"/>
<path d="M14.8339 128.599L10.5706 131.495L11.1747 133.97C11.1747 133.97 20.0552 129.366 17.6819 127.521L14.8339 128.599Z" fill="#FFE3CE"/>
<path d="M34.1658 282.04C33.5225 282.024 32.8829 281.937 32.2585 281.781C32.2268 281.772 32.1981 281.754 32.1754 281.73C32.1527 281.705 32.1367 281.676 32.1291 281.643C32.1238 281.61 32.1284 281.576 32.1422 281.545C32.156 281.515 32.1784 281.489 32.2068 281.471C32.457 281.307 34.6405 279.893 35.4863 280.272C35.5821 280.314 35.6649 280.381 35.7256 280.466C35.7864 280.551 35.823 280.651 35.8315 280.755C35.8652 280.918 35.8567 281.086 35.8068 281.245C35.757 281.403 35.6674 281.546 35.5467 281.66C35.1468 281.948 34.6568 282.083 34.1658 282.04ZM32.7418 281.531C34.0018 281.79 34.9512 281.738 35.3309 281.41C35.4102 281.332 35.4683 281.234 35.5 281.127C35.5317 281.02 35.5359 280.907 35.5121 280.798C35.509 280.752 35.4937 280.708 35.4679 280.671C35.4422 280.633 35.4068 280.602 35.3654 280.583C34.908 280.384 33.6394 281.022 32.7418 281.531Z" fill="#F25E7F"/>
<path d="M32.2996 281.78C32.2715 281.79 32.2413 281.79 32.2133 281.78C32.188 281.765 32.1669 281.743 32.1518 281.718C32.1368 281.692 32.1282 281.664 32.127 281.634C32.127 281.539 32.127 279.462 32.9209 278.764C33.0167 278.674 33.1318 278.607 33.2574 278.568C33.3831 278.529 33.5159 278.519 33.6459 278.54C33.782 278.541 33.9136 278.588 34.0188 278.675C34.124 278.761 34.1965 278.881 34.2241 279.014C34.3881 279.876 33.0677 281.393 32.3859 281.78C32.3577 281.789 32.3277 281.789 32.2996 281.78ZM33.525 278.859C33.3853 278.862 33.2511 278.914 33.1453 279.005C32.6925 279.676 32.4603 280.472 32.4808 281.281C33.1626 280.729 33.9911 279.557 33.8875 279.065C33.8875 278.988 33.8271 278.884 33.6027 278.859H33.525Z" fill="#F25E7F"/>
<path d="M79.1913 278.849C79.1591 278.847 79.128 278.837 79.1011 278.819C79.0743 278.801 79.0527 278.776 79.0387 278.747C79.0246 278.718 79.0185 278.686 79.0211 278.654C79.0236 278.622 79.0347 278.591 79.0532 278.565C79.2862 278.289 81.2971 275.927 82.3241 275.927H82.3931C82.4868 275.934 82.5769 275.965 82.6543 276.018C82.7317 276.071 82.7935 276.144 82.8333 276.229C82.9028 276.362 82.9392 276.51 82.9392 276.66C82.9392 276.81 82.9028 276.958 82.8333 277.091C82.3845 278.039 80.3564 278.573 79.1827 278.815L79.1913 278.849ZM82.3155 276.263C81.7545 276.263 80.5117 277.436 79.6573 278.392C81.2367 278.022 82.3068 277.53 82.5571 276.97C82.6078 276.882 82.6346 276.783 82.6346 276.681C82.6346 276.58 82.6078 276.48 82.5571 276.393C82.5422 276.358 82.5184 276.328 82.4881 276.305C82.4578 276.282 82.4221 276.268 82.3845 276.263H82.3155Z" fill="#F25E7F"/>
<path d="M79.1918 278.849C79.1628 278.844 79.1357 278.831 79.1142 278.811C79.0926 278.791 79.0776 278.765 79.071 278.737C79.071 278.659 78.4496 276.797 79.002 275.755C79.0779 275.602 79.1845 275.466 79.3152 275.357C79.4459 275.247 79.5978 275.165 79.7614 275.117C80.2188 274.979 80.4432 275.117 80.5382 275.315C80.9783 276.022 80.0031 278.108 79.3558 278.763C79.3388 278.79 79.3145 278.813 79.2857 278.828C79.2568 278.843 79.2244 278.851 79.1918 278.849ZM80.0549 275.401C79.9891 275.391 79.9221 275.391 79.8564 275.401C79.7357 275.436 79.6235 275.495 79.5269 275.575C79.4304 275.655 79.3515 275.754 79.2954 275.867C79.0449 276.652 79.0449 277.495 79.2954 278.28C79.9081 277.418 80.5036 275.875 80.2447 275.453C80.2162 275.418 80.1768 275.394 80.1329 275.385C80.0891 275.376 80.0433 275.381 80.0031 275.401H80.0549Z" fill="#F25E7F"/>
<path d="M32.9313 57.8049C33.7944 62.1153 35.5204 70.7361 32.543 73.624C32.543 73.624 33.7167 77.9344 41.691 77.9344C50.4507 77.9344 45.8767 73.624 45.8767 73.624C41.0955 72.4861 41.2164 68.9429 42.0535 65.6067L32.9313 57.8049Z" fill="#FFE3CE"/>
<path d="M50.3476 48.6147C50.2767 48.616 50.2072 48.5948 50.1491 48.5544C50.1121 48.5278 50.0808 48.4943 50.0569 48.4556C50.033 48.417 50.017 48.374 50.0097 48.3292C50.0025 48.2843 50.0043 48.2385 50.0148 48.1943C50.0254 48.1501 50.0446 48.1084 50.0714 48.0717C50.3829 47.6288 50.7944 47.2653 51.2727 47.0108C51.751 46.7562 52.2826 46.6177 52.8244 46.6064C52.9055 46.6194 52.9794 46.6608 53.0326 46.7232C53.0859 46.7856 53.1152 46.8649 53.1152 46.9469C53.1152 47.0289 53.0859 47.1083 53.0326 47.1707C52.9794 47.2331 52.9055 47.2744 52.8244 47.2873C52.3935 47.2992 51.9715 47.4132 51.5933 47.62C51.2152 47.8268 50.8917 48.1205 50.6496 48.4768C50.6155 48.5239 50.5697 48.5614 50.5168 48.5855C50.4639 48.6097 50.4055 48.6198 50.3476 48.6147Z" fill="#263238"/>
<path d="M52.2616 52.7273C52.7269 54.0775 53.3775 55.3567 54.1948 56.5283C53.8879 56.7271 53.5414 56.857 53.1794 56.9091C52.8173 56.9612 52.4483 56.9342 52.0977 56.83L52.2616 52.7273Z" fill="#FFE3CE"/>
<path d="M51.7839 51.7097C51.7839 52.2958 52.0515 52.7785 52.4312 52.7871C52.8109 52.7957 53.1389 52.3475 53.1648 51.7614C53.1907 51.1753 52.8972 50.7013 52.5175 50.6841C52.1378 50.6668 51.8098 51.1323 51.7839 51.7097Z" fill="#263238"/>
<path d="M52.3447 50.7102L53.7601 50.3652C53.7601 50.3652 53.0006 51.4259 52.3447 50.7102Z" fill="#263238"/>
<path d="M31.7246 280.781H23.6035C23.463 280.776 23.3256 280.823 23.2186 280.914C23.1115 281.005 23.0425 281.133 23.0253 281.272L22.1019 287.686C22.0821 287.849 22.0974 288.013 22.1468 288.169C22.1961 288.326 22.2783 288.469 22.3879 288.591C22.4974 288.713 22.6318 288.809 22.7819 288.875C22.9321 288.94 23.0945 288.973 23.2583 288.971C26.089 288.928 27.4526 288.755 31.0255 288.755C33.2262 288.755 36.428 288.988 39.4659 288.988C42.5037 288.988 42.6591 285.988 41.3991 285.721C35.7376 284.496 34.8401 282.824 32.9328 281.221C32.5931 280.939 32.1661 280.783 31.7246 280.781Z" fill="#263238"/>
<path d="M78.4176 278.083L70.918 281.195C70.788 281.245 70.6811 281.341 70.6175 281.465C70.5538 281.589 70.5379 281.732 70.5727 281.867L72.178 288.152C72.2235 288.308 72.3018 288.454 72.4077 288.578C72.5136 288.702 72.6446 288.803 72.7922 288.873C72.9398 288.943 73.1006 288.981 73.264 288.984C73.4274 288.988 73.5896 288.957 73.74 288.893C76.3291 287.764 77.5373 287.091 80.8341 285.721C82.8622 284.858 87.1514 283.35 89.9563 282.186C92.7611 281.022 91.7513 278.195 90.4827 278.427C84.7867 279.479 82.0768 278.781 79.7035 278.031C79.2821 277.897 78.8269 277.915 78.4176 278.083Z" fill="#263238"/>
<path d="M62.0881 82.5635C63.4948 85.8738 65.0138 89.2618 66.5499 92.5549C67.3267 94.2101 68.135 95.8366 68.975 97.4343C69.8381 99.0377 70.7011 100.607 71.5641 102.107C72.0215 102.848 72.4789 103.59 72.9536 104.271L73.6612 105.253C73.8064 105.458 73.9711 105.649 74.1532 105.822C75.0944 106.639 76.2688 107.14 77.5103 107.253C80.4532 107.676 84.147 107.081 87.4524 106.193L88.9886 109.512C88.1153 110.036 87.2102 110.505 86.2787 110.917C85.3619 111.343 84.4194 111.712 83.4566 112.021C81.4269 112.711 79.3004 113.074 77.1565 113.098C75.961 113.109 74.77 112.952 73.6181 112.633C72.3395 112.281 71.137 111.697 70.0711 110.909C69.5253 110.494 69.0197 110.029 68.5608 109.521C68.1724 109.081 67.8876 108.71 67.5424 108.296C66.8951 107.486 66.3169 106.667 65.7387 105.848C63.5882 102.616 61.6509 99.2463 59.9392 95.7619C58.2131 92.3136 56.6597 88.8653 55.2271 85.2963L62.0881 82.5635Z" fill="#FFE3CE"/>
<path d="M86.7123 109.917L94.6003 108.676L92.5032 104.21C92.5032 104.21 86.393 105.271 85.2192 108.029L86.7123 109.917Z" fill="#FFE3CE"/>
<path d="M94.5917 105.193L93.7287 103.288L92.5032 104.21L94.5917 108.676V105.193Z" fill="#FFE3CE"/>
<path d="M32.2773 48.9428C32.4326 56.1067 32.3463 59.1412 35.8157 62.9516C40.9938 68.6844 49.8139 66.9257 51.7989 59.8567C53.5853 53.4946 53.0244 42.848 46.1374 39.7272C44.6211 39.0327 42.9522 38.7369 41.2891 38.8679C39.6261 38.9989 38.0243 39.5523 36.6356 40.4756C35.2469 41.3989 34.1176 42.6615 33.3548 44.1434C32.592 45.6254 32.2211 47.2774 32.2773 48.9428Z" fill="#FFE3CE"/>
<path d="M26.4936 36.0031C33.8638 30.6669 42.097 33.6927 46.602 37.3824C51.3141 41.2445 50.5633 48.667 47.6808 51.736C47.9798 52.1899 48.1777 52.7027 48.2611 53.2396C48.3444 53.7765 48.3114 54.325 48.1641 54.8481C48.5279 57.1448 48.0222 59.4944 46.7458 61.4389C45.4693 63.3834 43.5135 64.7832 41.2599 65.3654L40.8543 65.4689C31.6458 67.6585 21.0047 61.4343 19.3995 52.1239C18.4243 46.4428 19.9777 40.71 26.4936 36.0031Z" fill="#263238"/>
<path d="M46.0327 52.2617C46.1506 53.6123 46.7295 54.8814 47.6724 55.8565C48.9497 57.1755 50.2615 56.4169 50.4945 54.8565C50.693 53.4514 50.2701 51.072 48.7167 50.322C47.1632 49.572 45.9205 50.6669 46.0327 52.2617Z" fill="#FFE3CE"/>
<path opacity="0.3" d="M36.9025 142.228C36.0826 157.038 39.6555 168.22 41.2867 174.763C42.4431 165.09 43.5046 154.995 44.3935 146.09C41.3471 136.004 37.498 131.081 36.9025 142.228Z" fill="black"/>
<path d="M33.4095 272.039H20.8525L20.188 267.643L33.4786 267.195L33.4095 272.039Z" fill="#F25E7F"/>
<path opacity="0.3" d="M21.1287 92.4948L25.4869 95.9431C25.4869 95.9431 25.9443 94.7276 26.4967 92.9862L23.9076 80.1843L21.1287 92.4948Z" fill="black"/>
<path d="M30.6074 37.2014C32.8599 34.71 40.5149 30.9083 47.0825 33.891C48.9559 34.7434 50.5434 36.1174 51.6547 37.8483C52.766 39.5791 53.354 41.5935 53.3481 43.6497L47.4278 47.6153L30.6074 37.2014Z" fill="#263238"/>
<path d="M24.5623 43.7446C27.8159 41.0808 31.4665 31.4256 24.5623 34.7877C17.6581 38.1497 15.561 51.1154 24.5623 43.7446Z" fill="#F25E7F"/>
<path d="M25.2956 37.5549C26.7023 33.4514 17.4248 25.2876 11.1679 33.0463C4.91094 40.8049 21.248 49.3654 25.2956 37.5549Z" fill="#263238"/>
<path d="M39.8132 43.2791C34.4193 40.986 31.7353 32.2963 40.9955 32.5463C50.2558 32.7963 49.9882 47.6154 39.8132 43.2791Z" fill="#F25E7F"/>
<path d="M38.0712 38.7791C34.8003 34.7015 38.4164 24.2187 47.7975 27.5721C57.1785 30.9256 45.5795 48.0981 38.0712 38.7791Z" fill="#263238"/>
<path d="M54.6496 119.055C54.6496 119.055 62.7965 174.659 65.6618 196.539C68.6392 219.254 77.3385 270.186 77.3385 270.186L67.6726 271.66C67.6726 271.66 52.3971 223.082 48.1424 200.97C43.4993 176.875 34.334 119.073 34.334 119.073L54.6496 119.055Z" fill="#F25E7F"/>
<path opacity="0.6" d="M54.6496 119.055C54.6496 119.055 62.7965 174.659 65.6618 196.539C68.6392 219.254 77.3385 270.186 77.3385 270.186L67.6726 271.66C67.6726 271.66 52.3971 223.082 48.1424 200.97C43.4993 176.875 34.334 119.073 34.334 119.073L54.6496 119.055Z" fill="black"/>
<path d="M58.0993 75.4776C61.6894 76.3396 66.1168 86.2018 66.1168 86.2018L57.5642 97.1501C57.5642 97.1501 48.7268 84.6587 49.9092 80.8483C51.1347 76.8741 53.741 74.4172 58.0993 75.4776Z" fill="#263238"/>
<path d="M46.3971 75.0287C47.5794 75.2011 46.4834 72.5033 45.9915 72.2188C44.8609 71.5466 30.457 70.1934 30.621 71.7103C30.7082 72.6156 31.0972 73.4655 31.7257 74.1237C32.373 74.5546 36.0408 73.3652 46.3971 75.0287Z" fill="#F25E7F"/>
<path opacity="0.6" d="M46.3971 75.0287C47.5794 75.2011 46.4834 72.5033 45.9915 72.2188C44.8609 71.5466 30.457 70.1934 30.621 71.7103C30.7082 72.6156 31.0972 73.4655 31.7257 74.1237C32.373 74.5546 36.0408 73.3652 46.3971 75.0287Z" fill="white"/>
<path d="M58.1007 75.4772C58.1007 75.4772 61.5528 76.6841 54.6486 119.055H25.3058C25.7978 107.124 25.815 99.7619 20.1277 75.2617C24.2365 74.4147 28.4015 73.8673 32.5898 73.6238C37.0286 73.3044 41.4846 73.3044 45.9235 73.6238C51.5763 74.1238 58.1007 75.4772 58.1007 75.4772Z" fill="#263238"/>
<path d="M24.819 117.34L23.4986 119.926C23.395 120.132 23.6367 120.339 23.9733 120.339H54.7659C55.0248 120.339 55.2492 120.21 55.2665 120.038L55.5254 117.452C55.5254 117.271 55.3183 117.116 55.0249 117.116H25.3196C25.2235 117.102 25.1256 117.116 25.0371 117.156C24.9486 117.196 24.8731 117.259 24.819 117.34Z" fill="#F25E7F"/>
<path opacity="0.6" d="M24.819 117.34L23.4986 119.926C23.395 120.132 23.6367 120.339 23.9733 120.339H54.7659C55.0248 120.339 55.2492 120.21 55.2665 120.038L55.5254 117.452C55.5254 117.271 55.3183 117.116 55.0249 117.116H25.3196C25.2235 117.102 25.1256 117.116 25.0371 117.156C24.9486 117.196 24.8731 117.259 24.819 117.34Z" fill="white"/>
<path d="M28.844 120.675H28.0414C27.8861 120.675 27.7652 120.589 27.7739 120.494L28.1536 117.047C28.1536 116.943 28.3003 116.866 28.4557 116.866H29.2583C29.4136 116.866 29.5344 116.943 29.5258 117.047L29.1461 120.494C29.1374 120.572 28.9994 120.675 28.844 120.675Z" fill="#F25E7F"/>
<path d="M48.1259 120.675H47.3319C47.1679 120.675 47.0471 120.589 47.0644 120.494L47.4355 117.047C47.4355 116.943 47.5822 116.866 47.7462 116.866H48.5401C48.6955 116.866 48.8163 116.943 48.8077 117.047L48.4366 120.494C48.4366 120.572 48.2985 120.675 48.1259 120.675Z" fill="#F25E7F"/>
<path opacity="0.6" d="M28.844 120.675H28.0414C27.8861 120.675 27.7652 120.589 27.7739 120.494L28.1536 117.047C28.1536 116.943 28.3003 116.866 28.4557 116.866H29.2583C29.4136 116.866 29.5344 116.943 29.5258 117.047L29.1461 120.494C29.1374 120.572 28.9994 120.675 28.844 120.675Z" fill="black"/>
<path opacity="0.6" d="M48.1259 120.675H47.3319C47.1679 120.675 47.0471 120.589 47.0644 120.494L47.4355 117.047C47.4355 116.943 47.5822 116.866 47.7462 116.866H48.5401C48.6955 116.866 48.8163 116.943 48.8077 117.047L48.4366 120.494C48.4366 120.572 48.2985 120.675 48.1259 120.675Z" fill="black"/>
<path d="M78.7598 270.186L66.384 272.289L64.9773 267.625L78.2247 265.358L78.7598 270.186Z" fill="#F25E7F"/>
<path d="M202.095 29.5202C195.512 18.9909 185.952 10.6478 174.622 5.54596C163.293 0.444103 150.703 -1.18743 138.446 0.857668C126.188 2.90276 114.812 8.53264 105.758 17.0354C96.7032 25.5382 90.376 36.532 87.5762 48.6267C84.7763 60.7214 85.6297 73.3738 90.0284 84.984C94.427 96.5943 102.173 106.641 112.288 113.854C122.403 121.066 134.431 125.121 146.853 125.505C159.274 125.89 171.531 122.586 182.073 116.012C189.073 111.647 195.145 105.947 199.94 99.2372C204.735 92.5278 208.16 84.9405 210.019 76.9088C211.878 68.8771 212.135 60.5582 210.776 52.4272C209.416 44.2962 206.466 36.5123 202.095 29.5202ZM106.739 89.0034C101.547 80.6942 98.9375 71.0336 99.2413 61.2431C99.5452 51.4526 102.749 41.972 108.446 34.0001C114.144 26.0281 122.081 19.9229 131.252 16.4564C140.423 12.99 150.418 12.3179 159.971 14.5253C169.525 16.7327 178.209 21.7204 184.925 28.8576C191.641 35.9948 196.088 44.9611 197.702 54.6226C199.317 64.2841 198.027 74.2069 193.996 83.1362C189.965 92.0655 183.374 99.6004 175.056 104.788C169.533 108.232 163.384 110.556 156.961 111.626C150.538 112.697 143.967 112.493 137.623 111.026C131.279 109.56 125.287 106.859 119.988 103.079C114.688 99.2988 110.187 94.5129 106.739 88.9948V89.0034Z" fill="#F25E7F"/>
<path d="M202.095 29.5202C195.512 18.9909 185.952 10.6478 174.622 5.54596C163.293 0.444103 150.703 -1.18743 138.446 0.857668C126.188 2.90276 114.812 8.53264 105.758 17.0354C96.7032 25.5382 90.376 36.532 87.5762 48.6267C84.7763 60.7214 85.6297 73.3738 90.0284 84.984C94.427 96.5943 102.173 106.641 112.288 113.854C122.403 121.066 134.431 125.121 146.853 125.505C159.274 125.89 171.531 122.586 182.073 116.012C189.073 111.647 195.145 105.947 199.94 99.2372C204.735 92.5278 208.16 84.9405 210.019 76.9088C211.878 68.8771 212.135 60.5582 210.776 52.4272C209.416 44.2962 206.466 36.5123 202.095 29.5202ZM106.739 89.0034C101.547 80.6942 98.9375 71.0336 99.2413 61.2431C99.5452 51.4526 102.749 41.972 108.446 34.0001C114.144 26.0281 122.081 19.9229 131.252 16.4564C140.423 12.99 150.418 12.3179 159.971 14.5253C169.525 16.7327 178.209 21.7204 184.925 28.8576C191.641 35.9948 196.088 44.9611 197.702 54.6226C199.317 64.2841 198.027 74.2069 193.996 83.1362C189.965 92.0655 183.374 99.6004 175.056 104.788C169.533 108.232 163.384 110.556 156.961 111.626C150.538 112.697 143.967 112.493 137.623 111.026C131.279 109.56 125.287 106.859 119.988 103.079C114.688 99.2988 110.187 94.5129 106.739 88.9948V89.0034Z" fill="#F25E7F"/>
<path opacity="0.5" d="M202.095 29.5202C195.512 18.9909 185.952 10.6478 174.622 5.54596C163.293 0.444103 150.703 -1.18743 138.446 0.857668C126.188 2.90276 114.812 8.53264 105.758 17.0354C96.7032 25.5382 90.376 36.532 87.5762 48.6267C84.7763 60.7214 85.6297 73.3738 90.0284 84.984C94.427 96.5943 102.173 106.641 112.288 113.854C122.403 121.066 134.431 125.121 146.853 125.505C159.274 125.89 171.531 122.586 182.073 116.012C189.073 111.647 195.145 105.947 199.94 99.2372C204.735 92.5278 208.16 84.9405 210.019 76.9088C211.878 68.8771 212.135 60.5582 210.776 52.4272C209.416 44.2962 206.466 36.5123 202.095 29.5202ZM106.739 89.0034C101.547 80.6942 98.9375 71.0336 99.2413 61.2431C99.5452 51.4526 102.749 41.972 108.446 34.0001C114.144 26.0281 122.081 19.9229 131.252 16.4564C140.423 12.99 150.418 12.3179 159.971 14.5253C169.525 16.7327 178.209 21.7204 184.925 28.8576C191.641 35.9948 196.088 44.9611 197.702 54.6226C199.317 64.2841 198.027 74.2069 193.996 83.1362C189.965 92.0655 183.374 99.6004 175.056 104.788C169.533 108.232 163.384 110.556 156.961 111.626C150.538 112.697 143.967 112.493 137.623 111.026C131.279 109.56 125.287 106.859 119.988 103.079C114.688 99.2988 110.187 94.5129 106.739 88.9948V89.0034Z" fill="white"/>
<path opacity="0.2" d="M195.009 33.9425C200.714 43.0732 203.58 53.6885 203.245 64.4463C202.91 75.204 199.39 85.6211 193.129 94.3805C186.868 103.14 178.147 109.848 168.07 113.657C157.992 117.466 147.01 118.205 136.513 115.779C126.015 113.354 116.473 107.875 109.093 100.033C101.713 92.1908 96.826 82.3392 95.0506 71.7234C93.2753 61.1075 94.6909 50.2042 99.1186 40.392C103.546 30.5798 110.787 22.2993 119.926 16.5975C125.996 12.8105 132.753 10.255 139.812 9.0771C146.87 7.89922 154.092 8.122 161.065 9.73272C168.037 11.3434 174.624 14.3105 180.448 18.4645C186.272 22.6185 191.22 27.878 195.009 33.9425Z" fill="#FAFAFA"/>
<path opacity="0.1" d="M202.749 55.0638L118.172 107.806C111.276 103.131 105.545 96.9373 101.421 89.702L193.765 32.1067C198.477 38.9724 201.55 46.826 202.749 55.0638Z" fill="#F4F6FC"/>
</svg>
