<svg width="136" height="111" viewBox="0 0 136 111" fill="none" xmlns="http://www.w3.org/2000/svg">
<path d="M104.97 110.25C105.644 110.25 106.196 109.717 106.22 109.044L107.915 60.5527C107.94 59.8456 107.374 59.259 106.666 59.259H68.3727C67.6653 59.259 67.0988 59.8456 67.1235 60.5527L68.846 109.802L69.0959 109.794L68.846 109.802L68.846 109.802C68.8546 110.052 69.0595 110.25 69.3094 110.25H104.97ZM70.4818 109.322C70.0778 109.322 69.7464 109.002 69.7322 108.599L68.0659 60.9628C68.0511 60.5386 68.391 60.1866 68.8155 60.1866H106.223C106.648 60.1866 106.988 60.5386 106.973 60.9628L105.307 108.599C105.293 109.002 104.961 109.322 104.557 109.322H70.4818Z" fill="#B7BCCC" stroke="#B7BCCC" stroke-width="0.5"/>
<path d="M77.6392 70.2267V102.084C77.6392 102.719 77.124 103.234 76.4884 103.234C75.8529 103.234 75.3376 102.719 75.3376 102.084V70.2267C75.3376 69.5912 75.8529 69.0759 76.4884 69.0759C77.124 69.0759 77.6392 69.5912 77.6392 70.2267Z" fill="#B7BCCC" stroke="white" stroke-width="0.5"/>
<path d="M88.6702 70.2267V102.084C88.6702 102.719 88.155 103.234 87.5194 103.234C86.8839 103.234 86.3687 102.719 86.3687 102.084V70.2267C86.3687 69.5912 86.8839 69.0759 87.5194 69.0759C88.155 69.0759 88.6702 69.5912 88.6702 70.2267Z" fill="#B7BCCC" stroke="white" stroke-width="0.5"/>
<path d="M99.701 70.2267V102.084C99.701 102.719 99.1858 103.234 98.5502 103.234C97.9146 103.234 97.3994 102.719 97.3994 102.084V70.2267C97.3994 69.5912 97.9146 69.0759 98.5502 69.0759C99.1858 69.0759 99.701 69.5912 99.701 70.2267Z" fill="#B7BCCC" stroke="white" stroke-width="0.5"/>
<path d="M130.793 74.3722L130.793 74.3722C131.01 74.509 131.296 74.4444 131.433 74.2278L134.753 68.9761C135.122 68.3924 134.947 67.6202 134.364 67.2514L89.4581 38.8817L89.458 38.8817C89.2414 38.7449 88.9549 38.8096 88.8181 39.0261L85.4982 44.2777C85.1293 44.8614 85.3034 45.6337 85.8872 46.0024L130.793 74.3722ZM86.7445 45.4467C86.3942 45.2255 86.2897 44.7621 86.5111 44.4119L88.9541 40.5474C89.1754 40.1973 89.6385 40.0929 89.9886 40.3141L133.506 67.8073C133.857 68.0286 133.961 68.4919 133.74 68.8421L131.297 72.7064C131.076 73.0564 130.613 73.1609 130.262 72.9397L86.7445 45.4467Z" fill="#B7BCCC" stroke="#B7BCCC" stroke-width="0.5"/>
<path d="M120.061 42.9273C118.731 42.0859 117.188 41.6436 115.614 41.6529C114.04 41.6621 112.502 42.1225 111.182 42.9794C109.863 43.8364 108.816 45.0538 108.168 46.4874C107.519 47.921 107.296 49.5105 107.524 51.0672L109.705 52.4455C109.157 51.1728 109.031 49.7582 109.345 48.4086C109.659 47.0591 110.397 45.8455 111.451 44.9456C112.505 44.0457 113.82 43.5068 115.202 43.4078C116.585 43.3087 117.962 43.6547 119.134 44.3951C120.306 45.1356 121.209 46.2315 121.713 47.5225C122.216 48.8135 122.293 50.2317 121.932 51.5694C121.571 52.9072 120.791 54.0943 119.706 54.9568C118.621 55.8193 117.289 56.312 115.904 56.3627L118.085 57.741C119.59 57.2792 120.93 56.3957 121.947 55.1952C122.965 53.9947 123.616 52.5276 123.824 50.9681C124.033 49.4086 123.789 47.822 123.122 46.3968C122.456 44.9716 121.394 43.7674 120.063 42.9273H120.061Z" fill="#B7BCCC"/>
<path d="M23.1605 106.787H20.0456L18.563 94.7762H23.1614L23.1605 106.787Z" fill="#FEB8B8"/>
<path d="M14.0383 109.678H23.8277V105.897H17.7682C16.7789 105.897 15.8302 106.29 15.1308 106.989C14.4313 107.688 14.0383 108.637 14.0383 109.626V109.678Z" fill="#252728"/>
<path d="M22.0657 88.1756L24.2143 90.4303L33.9355 83.219L30.7645 79.8914L22.0657 88.1756Z" fill="#FEB8B8"/>
<path d="M26.4277 91.4632L22.2466 87.0774L19.5083 89.6864L26.263 96.7718L26.3009 96.7356C26.6555 96.3978 26.9401 95.9934 27.1384 95.5456C27.3367 95.0978 27.4448 94.6153 27.4566 94.1257C27.4684 93.6361 27.3836 93.149 27.207 92.6922C27.0305 92.2354 26.7657 91.8178 26.4277 91.4633V91.4632Z" fill="#252728"/>
<path d="M0.385007 55.2701C0.187875 54.9531 0.0626642 54.5967 0.0181876 54.226C-0.026289 53.8553 0.0110458 53.4794 0.127574 53.1248C0.244103 52.7701 0.436988 52.4452 0.692646 52.1731C0.948304 51.901 1.26052 51.6882 1.60732 51.5498L13.8366 20.3913L18.6036 23.2447L5.01846 53.1358C5.21259 53.7339 5.18052 54.3823 4.92833 54.9582C4.67614 55.5342 4.22135 55.9976 3.65016 56.2607C3.07897 56.5238 2.43108 56.5683 1.82928 56.3857C1.22747 56.2032 0.713584 55.8062 0.385007 55.2701Z" fill="#FEB8B8"/>
<path d="M46.803 57.5034C46.4304 57.4767 46.0681 57.3687 45.7418 57.187C45.4155 57.0052 45.133 56.7541 44.9142 56.4514C44.6955 56.1487 44.5458 55.8016 44.4757 55.4348C44.4057 55.068 44.4169 54.6902 44.5087 54.3282L26.4673 26.1328L31.577 23.9519L47.7967 52.501C48.3957 52.6945 48.9027 53.1012 49.2215 53.6439C49.5403 54.1865 49.6487 54.8272 49.5261 55.4445C49.4035 56.0617 49.0585 56.6125 48.5565 56.9922C48.0545 57.3719 47.4305 57.5541 46.803 57.5042V57.5034Z" fill="#FEB8B8"/>
<path d="M13.957 52.1501L17.1504 99.5981L24.782 98.925L26.3532 63.919L30.6179 78.9531L39.8206 79.6262L36.1781 49.9061L13.957 52.1501Z" fill="#252728"/>
<path d="M31.9646 76.7094L30.6172 78.9534L21.1909 85.4606L27.9247 89.051C27.9247 89.051 40.9432 81.8704 39.821 79.6265L31.9646 76.7094Z" fill="#252728"/>
<path d="M7.27417 32.9531L9.93075 25.4696C10.5218 23.8045 11.4373 22.2731 12.6243 20.9641C13.8112 19.655 15.2461 18.5943 16.8458 17.8433C20.4415 16.519 24.3522 16.305 28.071 17.229L29.0378 17.4689C31.6157 18.0935 34.031 19.2597 36.1231 20.8899C37.7601 22.1801 39.2329 23.8136 39.364 25.5707C39.3647 25.5745 39.3657 25.5781 39.3672 25.5816C39.8206 27.5684 40.045 37.8902 40.045 37.8902H36.0455L36.6781 51.8025L36.627 51.7017C36.627 51.7017 13.559 56.0659 13.559 53.8219V39.4605L13.0861 34.2605L7.27417 32.9531Z" fill="#40BFFF"/>
<path d="M28.8059 15.2837C32.3365 15.2837 35.1985 12.4225 35.1985 8.89304C35.1985 5.36357 32.3365 2.50237 28.8059 2.50237C25.2754 2.50237 22.4133 5.36357 22.4133 8.89304C22.4133 12.4225 25.2754 15.2837 28.8059 15.2837Z" fill="#FEB8B8"/>
<path d="M29.7633 6.0271L34.727 6.22595C35.3515 6.22402 36.0334 6.202 36.509 5.79832C37.2255 5.18916 37.1056 4.0397 36.7219 3.18103C35.6525 0.790163 33.2671 -0.0663732 30.6477 0.00397147C28.0284 0.0743162 25.2837 0.961854 23.8731 3.16841C22.4626 5.37497 22.0815 8.16139 22.6127 10.7254C23.2269 9.42166 24.1725 8.30173 25.355 7.47745C26.5375 6.65317 27.9155 6.15337 29.3516 6.02796L29.7633 6.0271Z" fill="#472206"/>
<path d="M59.2389 68.5369L41.2728 55.949C41.1059 55.8316 40.9923 55.6528 40.957 55.4519C40.9216 55.2509 40.9674 55.0441 41.0842 54.8768L55.1854 34.7627C55.3029 34.5959 55.4817 34.4823 55.6827 34.447C55.8838 34.4117 56.0906 34.4574 56.258 34.5742L74.2241 47.162C74.391 47.2794 74.5045 47.4582 74.5399 47.6592C74.5753 47.8601 74.5295 48.0669 74.4127 48.2342L60.3118 68.3478C60.1944 68.5148 60.0156 68.6285 59.8144 68.664C59.6133 68.6994 59.4064 68.6537 59.2389 68.5369Z" fill="#F25E7F"/>
<path d="M63.2794 54.8782L52.7372 47.4919C52.6153 47.4065 52.5114 47.2979 52.4314 47.1723C52.3515 47.0467 52.2971 46.9067 52.2713 46.7601C52.2455 46.6135 52.2488 46.4633 52.2811 46.318C52.3134 46.1727 52.374 46.0352 52.4594 45.9133C52.5449 45.7914 52.6535 45.6876 52.7791 45.6077C52.9047 45.5277 53.0448 45.4733 53.1915 45.4476C53.3381 45.4218 53.4884 45.4251 53.6337 45.4574C53.779 45.4897 53.9166 45.5503 54.0385 45.6357L64.5807 53.022C64.8269 53.1945 64.9945 53.4577 65.0466 53.7538C65.0987 54.0498 65.031 54.3544 64.8584 54.6006C64.6858 54.8467 64.4225 55.0142 64.1264 55.0663C63.8303 55.1184 63.5256 55.0507 63.2794 54.8782Z" fill="white"/>
<path d="M60.8598 58.3293L50.3176 50.943C50.1955 50.8576 50.0915 50.7491 50.0114 50.6235C49.9313 50.4979 49.8768 50.3578 49.851 50.2111C49.8251 50.0645 49.8284 49.9142 49.8607 49.7688C49.8929 49.6234 49.9536 49.4858 50.039 49.3639C50.1245 49.2419 50.2332 49.138 50.3589 49.0581C50.4846 48.9782 50.6248 48.9238 50.7715 48.898C50.9182 48.8723 51.0686 48.8757 51.214 48.9081C51.3594 48.9405 51.497 49.0012 51.6189 49.0868L62.1611 56.4731C62.407 56.6458 62.5743 56.9089 62.6263 57.2048C62.6782 57.5007 62.6105 57.8051 62.438 58.0511C62.2655 58.2971 62.0024 58.4646 61.7065 58.5168C61.4105 58.569 61.106 58.5015 60.8598 58.3293Z" fill="white"/>
<path d="M58.4143 61.8176L47.8722 54.4312C47.7503 54.3458 47.6464 54.2372 47.5664 54.1117C47.4865 53.9861 47.4321 53.846 47.4063 53.6995C47.3805 53.5529 47.3839 53.4027 47.4161 53.2574C47.4484 53.1121 47.509 52.9746 47.5945 52.8527C47.6799 52.7308 47.7885 52.6269 47.9141 52.547C48.0397 52.4671 48.1798 52.4127 48.3265 52.3869C48.4731 52.3611 48.6234 52.3645 48.7687 52.3968C48.914 52.429 49.0516 52.4896 49.1735 52.575L59.7157 59.9614C59.9619 60.1339 60.1295 60.3971 60.1815 60.6931C60.2336 60.9892 60.1659 61.2938 59.9934 61.5399C59.8208 61.7861 59.5575 61.9536 59.2614 62.0057C58.9653 62.0577 58.6606 61.9901 58.4143 61.8176V61.8176Z" fill="white"/>
<path d="M63.2495 48.0511L59.1662 45.1902C59.0441 45.1048 58.9401 44.9963 58.86 44.8707C58.78 44.7451 58.7255 44.605 58.6996 44.4583C58.6737 44.3117 58.677 44.1614 58.7093 44.016C58.7416 43.8706 58.8022 43.733 58.8877 43.6111C58.9732 43.4891 59.0819 43.3852 59.2076 43.3053C59.3332 43.2254 59.4734 43.171 59.6202 43.1452C59.7669 43.1195 59.9172 43.1229 60.0626 43.1553C60.208 43.1877 60.3456 43.2484 60.4675 43.334L64.5508 46.1949C64.797 46.3675 64.9646 46.6307 65.0167 46.9267C65.0688 47.2228 65.0011 47.5274 64.8285 47.7735C64.656 48.0197 64.3927 48.1872 64.0965 48.2393C63.8004 48.2913 63.4957 48.2237 63.2495 48.0511Z" fill="white"/>
</svg>
