<svg width="217" height="196" viewBox="0 0 217 196" fill="none" xmlns="http://www.w3.org/2000/svg">
<path d="M108.402 195.644C168.271 195.644 216.804 192.813 216.804 189.322C216.804 185.83 168.271 183 108.402 183C48.5333 183 0 185.83 0 189.322C0 192.813 48.5333 195.644 108.402 195.644Z" fill="#F4F6FC"/>
<path d="M142.106 62.1937C137.337 66.0584 132.417 69.694 127.469 73.2683C122.521 76.8425 117.506 80.3163 112.474 83.7621C107.443 87.2079 102.327 90.5252 97.1889 93.8146C94.6339 95.4901 92.0397 97.0761 89.4623 98.7069C88.191 99.5821 86.7863 100.246 85.3027 100.673C84.4984 100.889 83.6742 101.024 82.8427 101.075C81.9083 101.152 80.9678 101.101 80.0472 100.924C79.3265 100.778 78.6418 100.49 78.0323 100.079C77.4228 99.6679 76.9006 99.1406 76.4955 98.5274C76.0903 97.9142 75.8103 97.2271 75.6715 96.5056C75.5327 95.7842 75.5377 95.0424 75.6863 94.3229C75.6863 94.2391 75.7255 94.133 75.7478 94.0436C75.9987 93.1394 76.3751 92.2746 76.866 91.4746C77.2791 90.7622 77.7643 90.0942 78.3141 89.4809C79.3497 88.3368 80.5637 87.3674 81.909 86.6103C84.5088 85.0131 87.0862 83.3879 89.6971 81.8241C94.9023 78.6464 100.158 75.558 105.441 72.5088C110.725 69.4595 116.064 66.5051 121.448 63.6234C126.832 60.7417 132.261 57.9325 137.829 55.3412C138.728 54.952 139.736 54.898 140.671 55.1891C141.606 55.4801 142.405 56.0967 142.923 56.9268C143.441 57.7569 143.644 58.7451 143.494 59.7118C143.344 60.6784 142.852 61.5592 142.106 62.1937Z" fill="#F25E7F"/>
<path d="M142.106 62.1937C137.337 66.0584 132.417 69.694 127.469 73.2683C122.521 76.8425 117.506 80.3163 112.474 83.7621C107.443 87.2079 102.327 90.5252 97.1889 93.8146C94.6339 95.4901 92.0397 97.0761 89.4623 98.7069C88.191 99.5821 86.7863 100.246 85.3027 100.673C84.4984 100.889 83.6742 101.024 82.8427 101.075C81.9083 101.152 80.9678 101.101 80.0472 100.924C79.3265 100.778 78.6418 100.49 78.0323 100.079C77.4228 99.6679 76.9006 99.1406 76.4955 98.5274C76.0903 97.9142 75.8103 97.2271 75.6715 96.5056C75.5327 95.7842 75.5377 95.0424 75.6863 94.3229C75.6863 94.2391 75.7255 94.133 75.7478 94.0436C75.9987 93.1394 76.3751 92.2746 76.866 91.4746C77.2791 90.7622 77.7643 90.0942 78.3141 89.4809C79.3497 88.3368 80.5637 87.3674 81.909 86.6103C84.5088 85.0131 87.0862 83.3879 89.6971 81.8241C94.9023 78.6464 100.158 75.558 105.441 72.5088C110.725 69.4595 116.064 66.5051 121.448 63.6234C126.832 60.7417 132.261 57.9325 137.829 55.3412C138.728 54.952 139.736 54.898 140.671 55.1891C141.606 55.4801 142.405 56.0967 142.923 56.9268C143.441 57.7569 143.644 58.7451 143.494 59.7118C143.344 60.6784 142.852 61.5592 142.106 62.1937Z" fill="#F25E7F"/>
<path opacity="0.5" d="M142.106 62.1937C137.337 66.0584 132.417 69.694 127.469 73.2683C122.521 76.8425 117.506 80.3163 112.474 83.7621C107.443 87.2079 102.327 90.5252 97.1889 93.8146C94.6339 95.4901 92.0397 97.0761 89.4623 98.7069C88.191 99.5821 86.7863 100.246 85.3027 100.673C84.4984 100.889 83.6742 101.024 82.8427 101.075C81.9083 101.152 80.9678 101.101 80.0472 100.924C79.3265 100.778 78.6418 100.49 78.0323 100.079C77.4228 99.6679 76.9006 99.1406 76.4955 98.5274C76.0903 97.9142 75.8103 97.2271 75.6715 96.5056C75.5327 95.7842 75.5377 95.0424 75.6863 94.3229C75.6863 94.2391 75.7255 94.133 75.7478 94.0436C75.9987 93.1394 76.3751 92.2746 76.866 91.4746C77.2791 90.7622 77.7643 90.0942 78.3141 89.4809C79.3497 88.3368 80.5637 87.3674 81.909 86.6103C84.5088 85.0131 87.0862 83.3879 89.6971 81.8241C94.9023 78.6464 100.158 75.558 105.441 72.5088C110.725 69.4595 116.064 66.5051 121.448 63.6234C126.832 60.7417 132.261 57.9325 137.829 55.3412C138.728 54.952 139.736 54.898 140.671 55.1891C141.606 55.4801 142.405 56.0967 142.923 56.9268C143.441 57.7569 143.644 58.7451 143.494 59.7118C143.344 60.6784 142.852 61.5592 142.106 62.1937Z" fill="white"/>
<path d="M121.477 182.406L126.04 181.35L123.904 170.722L119.342 171.778L121.477 182.406Z" fill="#FFE3CE"/>
<path d="M90.7171 55.4082C90.0853 57.6421 89.4759 59.9932 88.8945 62.2942C88.313 64.5951 87.7763 66.9295 87.329 69.2528C87.083 70.4088 86.8706 71.5928 86.6861 72.6818C86.5016 73.7709 86.3953 74.9157 86.3283 76.0606C86.2695 77.1992 86.2695 78.34 86.3283 79.4785C86.3283 80.037 86.4009 80.5954 86.4568 81.1874C86.5128 81.7794 86.6134 82.3435 86.6917 82.8293L84.4553 83.6726C84.1618 83.0724 83.9097 82.453 83.7005 81.8185C83.4818 81.2088 83.2952 80.588 83.1414 79.9588C82.8355 78.7033 82.6262 77.4262 82.5153 76.1388C82.4118 74.8383 82.3931 73.5324 82.4593 72.2295C82.5488 70.9115 82.7053 69.6996 82.8787 68.4709C83.2309 66.0192 83.6838 63.5898 84.2205 61.2107C84.7572 58.8316 85.3387 56.4358 86.0934 54.0287L90.7171 55.4082Z" fill="#FFE3CE"/>
<path d="M84.135 56.1788L88.8369 59.9206L91.6603 62.1545C91.6603 62.1545 91.9567 61.3671 92.3145 60.239C92.9966 58.0609 93.8855 54.6095 93.2705 53.0235C92.3033 50.5103 90.4751 48.2429 88.1604 48.7455C86.198 49.1867 84.135 56.1788 84.135 56.1788Z" fill="#263238"/>
<path d="M90.631 182.439H95.3106L94.9472 171.605H90.2621L90.631 182.439Z" fill="#FFE3CE"/>
<path d="M123.902 170.728L125.049 176.419L120.442 177.257L119.335 171.784L123.902 170.728Z" fill="#1C1208"/>
<path d="M90.2621 171.605H94.9472L95.1317 177.19H90.4466L90.2621 171.605Z" fill="#1C1208"/>
<path d="M105.524 77.1274C105.524 77.1274 102.807 109.234 99.9889 127.329C97.7134 141.944 95.9131 176.112 95.9131 176.112H89.5507C89.5507 176.112 86.5092 143.117 87.6665 128.641C90.5906 92.0666 85.4302 85.5883 91.5522 77.1107L105.524 77.1274Z" fill="#F25E7F"/>
<path opacity="0.6" d="M105.524 77.1274C105.524 77.1274 102.807 109.234 99.9889 127.329C97.7134 141.944 95.9131 176.112 95.9131 176.112H89.5507C89.5507 176.112 86.5092 143.117 87.6665 128.641C90.5906 92.0666 85.4302 85.5883 91.5522 77.1107L105.524 77.1274Z" fill="black"/>
<path d="M84.7588 83.3098L81.9969 85.1862L82.3883 86.7891C82.3883 86.7891 88.1413 83.8068 86.6038 82.6117L84.7588 83.3098Z" fill="#FFE3CE"/>
<path d="M97.2828 182.713C96.866 182.703 96.4517 182.646 96.0472 182.546C96.0266 182.539 96.008 182.528 95.9933 182.512C95.9786 182.496 95.9683 182.477 95.9633 182.456C95.9599 182.435 95.9629 182.413 95.9718 182.393C95.9807 182.373 95.9953 182.356 96.0136 182.344C96.1758 182.238 97.5903 181.322 98.1382 181.568C98.2003 181.595 98.2539 181.638 98.2933 181.693C98.3327 181.749 98.3563 181.813 98.3618 181.881C98.3837 181.986 98.3782 182.095 98.3459 182.198C98.3136 182.301 98.2556 182.393 98.1773 182.467C97.9183 182.654 97.6008 182.741 97.2828 182.713ZM96.3603 182.384C97.1766 182.551 97.7915 182.518 98.0375 182.305C98.0889 182.254 98.1266 182.191 98.1471 182.122C98.1676 182.053 98.1703 181.979 98.155 181.909C98.1529 181.879 98.143 181.851 98.1263 181.826C98.1096 181.802 98.0867 181.782 98.0599 181.769C97.7636 181.641 96.9417 182.054 96.3603 182.384Z" fill="#F25E7F"/>
<path d="M96.0749 182.545C96.0568 182.551 96.0372 182.551 96.019 182.545C96.0026 182.535 95.989 182.521 95.9792 182.504C95.9695 182.488 95.9639 182.469 95.9631 182.45C95.9631 182.389 95.9631 181.043 96.4775 180.591C96.5395 180.532 96.6141 180.489 96.6955 180.464C96.7768 180.439 96.8629 180.432 96.9471 180.445C97.0353 180.446 97.1206 180.477 97.1887 180.533C97.2569 180.589 97.3038 180.666 97.3217 180.753C97.4279 181.311 96.5725 182.294 96.1308 182.545C96.1126 182.55 96.0932 182.55 96.0749 182.545ZM96.8688 180.652C96.7783 180.654 96.6914 180.688 96.6228 180.747C96.3295 181.182 96.179 181.697 96.1923 182.221C96.634 181.864 97.1707 181.104 97.1036 180.786C97.1036 180.736 97.0645 180.669 96.9191 180.652H96.8688Z" fill="#F25E7F"/>
<path d="M126.451 180.646C126.43 180.645 126.41 180.638 126.393 180.627C126.376 180.615 126.362 180.599 126.352 180.58C126.343 180.562 126.339 180.541 126.341 180.52C126.343 180.499 126.35 180.479 126.362 180.462C126.513 180.283 127.816 178.753 128.481 178.753H128.526C128.586 178.758 128.645 178.778 128.695 178.812C128.745 178.847 128.785 178.894 128.811 178.949C128.856 179.035 128.879 179.131 128.879 179.228C128.879 179.325 128.856 179.421 128.811 179.507C128.52 180.121 127.206 180.468 126.446 180.624L126.451 180.646ZM128.475 178.971C128.112 178.971 127.307 179.73 126.753 180.35C127.776 180.11 128.47 179.792 128.632 179.429C128.665 179.372 128.682 179.308 128.682 179.242C128.682 179.176 128.665 179.112 128.632 179.055C128.622 179.032 128.607 179.013 128.587 178.998C128.568 178.983 128.544 178.974 128.52 178.971H128.475Z" fill="#F25E7F"/>
<path d="M126.452 180.646C126.433 180.643 126.416 180.635 126.402 180.622C126.388 180.609 126.378 180.592 126.374 180.573C126.374 180.523 125.971 179.317 126.329 178.641C126.378 178.543 126.447 178.455 126.532 178.384C126.616 178.313 126.715 178.26 126.821 178.228C127.117 178.139 127.263 178.228 127.324 178.357C127.609 178.815 126.977 180.166 126.558 180.59C126.547 180.608 126.531 180.623 126.513 180.633C126.494 180.643 126.473 180.647 126.452 180.646ZM127.011 178.413C126.968 178.406 126.925 178.406 126.882 178.413C126.804 178.435 126.732 178.473 126.669 178.525C126.606 178.577 126.555 178.641 126.519 178.714C126.357 179.223 126.357 179.769 126.519 180.277C126.916 179.719 127.302 178.72 127.134 178.446C127.116 178.424 127.09 178.408 127.062 178.402C127.033 178.396 127.003 178.4 126.977 178.413H127.011Z" fill="#F25E7F"/>
<path d="M96.4842 37.4476C97.0433 40.24 98.1615 45.8247 96.2326 47.6956C96.2326 47.6956 96.993 50.488 102.159 50.488C107.834 50.488 104.871 47.6956 104.871 47.6956C101.773 46.9584 101.851 44.6631 102.394 42.5018L96.4842 37.4476Z" fill="#FFE3CE"/>
<path d="M107.767 31.4939C107.721 31.4947 107.676 31.4811 107.638 31.4548C107.614 31.4376 107.594 31.4159 107.579 31.3909C107.563 31.3658 107.553 31.338 107.548 31.3089C107.543 31.2799 107.545 31.2502 107.551 31.2216C107.558 31.1929 107.571 31.1659 107.588 31.1421C107.79 30.8552 108.056 30.6198 108.366 30.4548C108.676 30.2899 109.021 30.2002 109.372 30.1929C109.424 30.2013 109.472 30.2281 109.506 30.2685C109.541 30.3089 109.56 30.3603 109.56 30.4135C109.56 30.4666 109.541 30.518 109.506 30.5584C109.472 30.5989 109.424 30.6257 109.372 30.634C109.092 30.6417 108.819 30.7156 108.574 30.8495C108.329 30.9835 108.119 31.1738 107.963 31.4046C107.941 31.4351 107.911 31.4594 107.877 31.475C107.842 31.4907 107.805 31.4972 107.767 31.4939Z" fill="#263238"/>
<path d="M109.007 34.1582C109.309 35.0329 109.73 35.8616 110.259 36.6206C110.061 36.7494 109.836 36.8335 109.602 36.8673C109.367 36.901 109.128 36.8835 108.901 36.816L109.007 34.1582Z" fill="#FFE3CE"/>
<path d="M108.695 33.499C108.695 33.8787 108.868 34.1914 109.114 34.197C109.36 34.2026 109.573 33.9122 109.59 33.5325C109.606 33.1528 109.416 32.8457 109.17 32.8346C108.924 32.8234 108.712 33.1249 108.695 33.499Z" fill="#263238"/>
<path d="M109.059 32.8515L109.976 32.628C109.976 32.628 109.484 33.3151 109.059 32.8515Z" fill="#263238"/>
<path d="M95.7023 181.898H90.4413C90.3503 181.894 90.2613 181.925 90.1919 181.984C90.1225 182.043 90.0779 182.126 90.0667 182.216L89.4685 186.371C89.4557 186.476 89.4656 186.583 89.4976 186.684C89.5295 186.785 89.5828 186.878 89.6538 186.957C89.7247 187.036 89.8118 187.099 89.909 187.141C90.0063 187.184 90.1115 187.205 90.2177 187.203C92.0515 187.175 92.9348 187.063 95.2495 187.063C96.6752 187.063 98.7494 187.214 100.717 187.214C102.685 187.214 102.786 185.271 101.97 185.098C98.3021 184.305 97.7207 183.221 96.4851 182.182C96.265 182 95.9884 181.899 95.7023 181.898Z" fill="#263238"/>
<path d="M125.95 180.149L121.091 182.166C121.007 182.198 120.938 182.261 120.897 182.341C120.856 182.421 120.845 182.514 120.868 182.601L121.908 186.672C121.937 186.774 121.988 186.868 122.057 186.949C122.125 187.029 122.21 187.094 122.306 187.14C122.401 187.185 122.505 187.21 122.611 187.212C122.717 187.214 122.822 187.194 122.92 187.153C124.597 186.421 125.38 185.986 127.515 185.098C128.829 184.539 131.608 183.562 133.425 182.808C135.242 182.054 134.588 180.222 133.766 180.373C130.076 181.054 128.321 180.602 126.783 180.116C126.51 180.029 126.215 180.041 125.95 180.149Z" fill="#263238"/>
<path d="M115.37 53.4869C116.281 55.6315 117.265 57.8263 118.26 59.9597C118.763 61.032 119.287 62.0856 119.831 63.1207C120.39 64.1594 120.949 65.1759 121.508 66.1476C121.805 66.6279 122.101 67.1082 122.409 67.5494L122.867 68.186C122.961 68.3189 123.068 68.4424 123.186 68.5546C123.795 69.0838 124.556 69.4081 125.361 69.4817C127.267 69.7554 129.66 69.37 131.801 68.7948L132.796 70.9449C132.231 71.2844 131.644 71.5884 131.041 71.8552C130.447 72.1314 129.836 72.3701 129.213 72.5701C127.898 73.0172 126.52 73.2528 125.131 73.2682C124.357 73.2751 123.585 73.1736 122.839 72.9666C122.011 72.7389 121.232 72.3602 120.541 71.8496C120.188 71.5811 119.86 71.2801 119.563 70.9505C119.311 70.6657 119.127 70.4255 118.903 70.1575C118.484 69.6325 118.109 69.1019 117.735 68.5714C116.341 66.4772 115.086 64.2945 113.977 62.0372C112.859 59.8033 111.853 57.5694 110.925 55.2573L115.37 53.4869Z" fill="#FFE3CE"/>
<path d="M131.322 71.2075L136.432 70.4033L135.073 67.5104C135.073 67.5104 131.115 68.1973 130.354 69.9845L131.322 71.2075Z" fill="#FFE3CE"/>
<path d="M136.426 68.147L135.867 66.9128L135.073 67.5103L136.426 70.4033V68.147Z" fill="#FFE3CE"/>
<path d="M96.0596 31.7064C96.1603 36.3474 96.1044 38.3132 98.3519 40.7817C101.706 44.4956 107.42 43.3563 108.706 38.7768C109.864 34.6552 109.5 27.758 105.039 25.7363C104.056 25.2864 102.975 25.0948 101.898 25.1796C100.82 25.2645 99.7827 25.623 98.8831 26.2212C97.9834 26.8193 97.2518 27.6372 96.7577 28.5973C96.2635 29.5573 96.0232 30.6276 96.0596 31.7064Z" fill="#FFE3CE"/>
<path d="M92.3136 23.3238C97.0882 19.8668 102.422 21.8271 105.34 24.2173C108.393 26.7193 107.907 31.5278 106.039 33.516C106.233 33.81 106.361 34.1422 106.415 34.49C106.469 34.8379 106.448 35.1932 106.352 35.5321C106.588 37.0199 106.26 38.5421 105.434 39.8018C104.607 41.0615 103.34 41.9683 101.88 42.3455L101.617 42.4125C95.6513 43.831 88.7578 39.7988 87.7178 33.7673C87.0861 30.0869 88.0924 26.3731 92.3136 23.3238Z" fill="#263238"/>
<path d="M104.971 33.8566C105.047 34.7316 105.422 35.5538 106.033 36.1855C106.86 37.0399 107.71 36.5485 107.861 35.5376C107.99 34.6273 107.716 33.0859 106.709 32.6001C105.703 32.1142 104.898 32.8234 104.971 33.8566Z" fill="#FFE3CE"/>
<path opacity="0.3" d="M99.0559 92.1392C98.5248 101.734 100.839 108.977 101.896 113.216C102.645 106.95 103.333 100.41 103.909 94.6412C101.935 88.107 99.4417 84.9181 99.0559 92.1392Z" fill="black"/>
<path d="M96.7928 176.234H88.658L88.2275 173.386L96.8375 173.096L96.7928 176.234Z" fill="#F25E7F"/>
<path opacity="0.3" d="M88.8371 59.9208L91.6605 62.1547C91.6605 62.1547 91.9568 61.3672 92.3146 60.2391L90.6374 51.9457L88.8371 59.9208Z" fill="black"/>
<path d="M94.9759 24.1001C96.4351 22.4861 101.394 20.0232 105.649 21.9556C106.863 22.5077 107.891 23.3978 108.611 24.5191C109.331 25.6405 109.712 26.9454 109.708 28.2775L105.873 30.8465L94.9759 24.1001Z" fill="#263238"/>
<path d="M91.0609 28.3389C93.1687 26.6132 95.5336 20.3582 91.0609 22.5363C86.5882 24.7144 85.2296 33.1138 91.0609 28.3389Z" fill="#F25E7F"/>
<path d="M91.5375 24.3291C92.4488 21.6708 86.4386 16.382 82.3852 21.4083C78.3318 26.4346 88.9154 31.9802 91.5375 24.3291Z" fill="#263238"/>
<path d="M100.939 28.0374C97.4449 26.5518 95.7061 20.9224 101.705 21.0843C107.704 21.2463 107.531 30.8465 100.939 28.0374Z" fill="#F25E7F"/>
<path d="M99.812 25.1221C97.6931 22.4805 100.036 15.6895 106.113 17.8619C112.19 20.0344 104.676 31.1593 99.812 25.1221Z" fill="#263238"/>
<path d="M110.551 77.1274C110.551 77.1274 115.829 113.149 117.685 127.323C119.614 142.039 125.25 175.034 125.25 175.034L118.988 175.989C118.988 175.989 109.092 144.519 106.336 130.194C103.328 114.584 97.3905 77.1386 97.3905 77.1386L110.551 77.1274Z" fill="#F25E7F"/>
<path opacity="0.6" d="M110.551 77.1274C110.551 77.1274 115.829 113.149 117.685 127.323C119.614 142.039 125.25 175.034 125.25 175.034L118.988 175.989C118.988 175.989 109.092 144.519 106.336 130.194C103.328 114.584 97.3905 77.1386 97.3905 77.1386L110.551 77.1274Z" fill="black"/>
<path d="M112.787 48.8964C115.113 49.4548 117.981 55.8438 117.981 55.8438L112.441 62.9365C112.441 62.9365 106.716 54.8441 107.482 52.3757C108.276 49.8011 109.964 48.2094 112.787 48.8964Z" fill="#263238"/>
<path d="M105.206 48.6055C105.972 48.7172 105.262 46.9695 104.944 46.7852C104.211 46.3497 94.8799 45.4731 94.9861 46.4558C95.0426 47.0423 95.2946 47.5929 95.7018 48.0192C96.1211 48.2984 98.4972 47.5279 105.206 48.6055Z" fill="#F25E7F"/>
<path opacity="0.6" d="M105.206 48.6055C105.972 48.7172 105.262 46.9695 104.944 46.7852C104.211 46.3497 94.8799 45.4731 94.9861 46.4558C95.0426 47.0423 95.2946 47.5929 95.7018 48.0192C96.1211 48.2984 98.4972 47.5279 105.206 48.6055Z" fill="white"/>
<path d="M112.788 48.8963C112.788 48.8963 115.024 49.6782 110.551 77.1273H91.5421C91.8608 69.398 91.8719 64.6286 88.1875 48.7567C90.8493 48.208 93.5475 47.8533 96.2608 47.6956C99.1364 47.4887 102.023 47.4887 104.899 47.6956C108.561 48.0195 112.788 48.8963 112.788 48.8963Z" fill="#263238"/>
<path d="M91.2272 76.016L90.3718 77.6911C90.3047 77.8251 90.4613 77.9591 90.6793 77.9591H110.628C110.795 77.9591 110.941 77.8754 110.952 77.7637L111.12 76.0886C111.12 75.9713 110.986 75.8708 110.795 75.8708H91.5515C91.4893 75.8623 91.4259 75.8714 91.3685 75.897C91.3112 75.9227 91.2623 75.9639 91.2272 76.016Z" fill="#F25E7F"/>
<path opacity="0.6" d="M91.2272 76.016L90.3718 77.6911C90.3047 77.8251 90.4613 77.9591 90.6793 77.9591H110.628C110.795 77.9591 110.941 77.8754 110.952 77.7637L111.12 76.0886C111.12 75.9713 110.986 75.8708 110.795 75.8708H91.5515C91.4893 75.8623 91.4259 75.8714 91.3685 75.897C91.3112 75.9227 91.2623 75.9639 91.2272 76.016Z" fill="white"/>
<path d="M93.835 78.1768H93.315C93.2144 78.1768 93.1361 78.121 93.1417 78.0596L93.3877 75.8261C93.3877 75.7591 93.4828 75.7088 93.5834 75.7088H94.1034C94.204 75.7088 94.2823 75.7591 94.2767 75.8261L94.0307 78.0596C94.0251 78.1098 93.9356 78.1768 93.835 78.1768Z" fill="#F25E7F"/>
<path d="M106.324 78.1768H105.81C105.704 78.1768 105.625 78.121 105.637 78.0596L105.877 75.8261C105.877 75.7591 105.972 75.7088 106.078 75.7088H106.593C106.693 75.7088 106.772 75.7591 106.766 75.8261L106.526 78.0596C106.526 78.1098 106.436 78.1768 106.324 78.1768Z" fill="#F25E7F"/>
<path opacity="0.6" d="M93.835 78.1768H93.315C93.2144 78.1768 93.1361 78.121 93.1417 78.0596L93.3877 75.8261C93.3877 75.7591 93.4828 75.7088 93.5834 75.7088H94.1034C94.204 75.7088 94.2823 75.7591 94.2767 75.8261L94.0307 78.0596C94.0251 78.1098 93.9356 78.1768 93.835 78.1768Z" fill="black"/>
<path opacity="0.6" d="M106.324 78.1768H105.81C105.704 78.1768 105.625 78.121 105.637 78.0596L105.877 75.8261C105.877 75.7591 105.972 75.7088 106.078 75.7088H106.593C106.693 75.7088 106.772 75.7591 106.766 75.8261L106.526 78.0596C106.526 78.1098 106.436 78.1768 106.324 78.1768Z" fill="black"/>
<path d="M126.171 175.034L118.154 176.396L117.243 173.375L125.825 171.906L126.171 175.034Z" fill="#F25E7F"/>
<path d="M206.073 19.124C201.809 12.3028 195.615 6.89795 188.276 3.59282C180.936 0.287702 172.78 -0.769249 164.839 0.555621C156.899 1.88049 149.529 5.52768 143.663 11.036C137.798 16.5443 133.699 23.6664 131.885 31.5017C130.071 39.337 130.624 47.5336 133.473 55.055C136.323 62.5764 141.341 69.0849 147.894 73.7575C154.446 78.4301 162.239 81.0569 170.286 81.3058C178.333 81.5548 186.273 79.4146 193.102 75.1559C197.638 72.3278 201.571 68.6351 204.677 64.2886C207.783 59.942 210.002 55.0268 211.206 49.8237C212.411 44.6205 212.578 39.2313 211.697 33.9638C210.816 28.6963 208.905 23.6537 206.073 19.124ZM144.299 57.6588C140.935 52.2759 139.245 46.0175 139.442 39.675C139.639 33.3324 141.714 27.1906 145.405 22.0262C149.096 16.8617 154.238 12.9066 160.179 10.6609C166.121 8.41526 172.595 7.9799 178.784 9.4099C184.974 10.8399 190.599 14.0711 194.95 18.6947C199.301 23.3184 202.181 29.127 203.227 35.386C204.273 41.645 203.438 48.0732 200.827 53.8579C198.215 59.6426 193.945 64.5239 188.557 67.8845C184.978 70.1158 180.995 71.6212 176.834 72.3146C172.673 73.008 168.416 72.8759 164.307 71.9258C160.197 70.9757 156.315 69.2262 152.882 66.7774C149.449 64.3285 146.533 61.2281 144.299 57.6532V57.6588Z" fill="#F25E7F"/>
<path d="M206.073 19.124C201.809 12.3028 195.615 6.89795 188.276 3.59282C180.936 0.287702 172.78 -0.769249 164.839 0.555621C156.899 1.88049 149.529 5.52768 143.663 11.036C137.798 16.5443 133.699 23.6664 131.885 31.5017C130.071 39.337 130.624 47.5336 133.473 55.055C136.323 62.5764 141.341 69.0849 147.894 73.7575C154.446 78.4301 162.239 81.0569 170.286 81.3058C178.333 81.5548 186.273 79.4146 193.102 75.1559C197.638 72.3278 201.571 68.6351 204.677 64.2886C207.783 59.942 210.002 55.0268 211.206 49.8237C212.411 44.6205 212.578 39.2313 211.697 33.9638C210.816 28.6963 208.905 23.6537 206.073 19.124ZM144.299 57.6588C140.935 52.2759 139.245 46.0175 139.442 39.675C139.639 33.3324 141.714 27.1906 145.405 22.0262C149.096 16.8617 154.238 12.9066 160.179 10.6609C166.121 8.41526 172.595 7.9799 178.784 9.4099C184.974 10.8399 190.599 14.0711 194.95 18.6947C199.301 23.3184 202.181 29.127 203.227 35.386C204.273 41.645 203.438 48.0732 200.827 53.8579C198.215 59.6426 193.945 64.5239 188.557 67.8845C184.978 70.1158 180.995 71.6212 176.834 72.3146C172.673 73.008 168.416 72.8759 164.307 71.9258C160.197 70.9757 156.315 69.2262 152.882 66.7774C149.449 64.3285 146.533 61.2281 144.299 57.6532V57.6588Z" fill="#F25E7F"/>
<path opacity="0.5" d="M206.073 19.124C201.809 12.3028 195.615 6.89795 188.276 3.59282C180.936 0.287702 172.78 -0.769249 164.839 0.555621C156.899 1.88049 149.529 5.52768 143.663 11.036C137.798 16.5443 133.699 23.6664 131.885 31.5017C130.071 39.337 130.624 47.5336 133.473 55.055C136.323 62.5764 141.341 69.0849 147.894 73.7575C154.446 78.4301 162.239 81.0569 170.286 81.3058C178.333 81.5548 186.273 79.4146 193.102 75.1559C197.638 72.3278 201.571 68.6351 204.677 64.2886C207.783 59.942 210.002 55.0268 211.206 49.8237C212.411 44.6205 212.578 39.2313 211.697 33.9638C210.816 28.6963 208.905 23.6537 206.073 19.124ZM144.299 57.6588C140.935 52.2759 139.245 46.0175 139.442 39.675C139.639 33.3324 141.714 27.1906 145.405 22.0262C149.096 16.8617 154.238 12.9066 160.179 10.6609C166.121 8.41526 172.595 7.9799 178.784 9.4099C184.974 10.8399 190.599 14.0711 194.95 18.6947C199.301 23.3184 202.181 29.127 203.227 35.386C204.273 41.645 203.438 48.0732 200.827 53.8579C198.215 59.6426 193.945 64.5239 188.557 67.8845C184.978 70.1158 180.995 71.6212 176.834 72.3146C172.673 73.008 168.416 72.8759 164.307 71.9258C160.197 70.9757 156.315 69.2262 152.882 66.7774C149.449 64.3285 146.533 61.2281 144.299 57.6532V57.6588Z" fill="white"/>
<path opacity="0.2" d="M201.482 21.9889C205.178 27.9041 207.034 34.781 206.818 41.7501C206.601 48.7193 204.32 55.4678 200.264 61.1423C196.208 66.8169 190.559 71.1626 184.03 73.6302C177.502 76.0977 170.387 76.5762 163.587 75.0052C156.786 73.4342 150.604 69.8841 145.823 64.804C141.042 59.7238 137.876 53.3417 136.726 46.4644C135.576 39.5872 136.493 32.5237 139.362 26.1671C142.23 19.8105 146.921 14.4462 152.841 10.7524C156.773 8.29903 161.151 6.64353 165.724 5.88046C170.296 5.1174 174.975 5.26172 179.492 6.30519C184.009 7.34865 188.276 9.27081 192.049 11.9619C195.822 14.6529 199.027 18.0602 201.482 21.9889Z" fill="#FAFAFA"/>
<path opacity="0.1" d="M206.497 35.6717L151.706 69.8393C147.238 66.8109 143.525 62.7986 140.854 58.1113L200.677 20.7995C203.729 25.2473 205.72 30.3351 206.497 35.6717Z" fill="#F4F6FC"/>
</svg>
