<svg width="19" height="18" viewBox="0 0 19 18" fill="none" xmlns="http://www.w3.org/2000/svg">
<path d="M18 2.78947L18.6166 2.99502C18.6827 2.79681 18.6495 2.57891 18.5273 2.40941C18.4051 2.23991 18.2089 2.13947 18 2.13947V2.78947ZM15.3158 10.8421V11.4921C15.5956 11.4921 15.844 11.3131 15.9324 11.0477L15.3158 10.8421ZM4.91657 12.7581L5.56004 12.6662L4.91657 12.7581ZM3.23684 1L3.88031 0.908076C3.83456 0.587854 3.56031 0.35 3.23684 0.35V1ZM1 0.35C0.641015 0.35 0.35 0.641015 0.35 1C0.35 1.35899 0.641015 1.65 1 1.65V0.35ZM15.5605 15.3158C15.5605 15.9451 15.0504 16.4553 14.4211 16.4553V17.7553C15.7683 17.7553 16.8605 16.6631 16.8605 15.3158H15.5605ZM14.4211 16.4553C13.7917 16.4553 13.2816 15.9451 13.2816 15.3158H11.9816C11.9816 16.6631 13.0738 17.7553 14.4211 17.7553V16.4553ZM13.2816 15.3158C13.2816 14.6865 13.7917 14.1763 14.4211 14.1763V12.8763C13.0738 12.8763 11.9816 13.9685 11.9816 15.3158H13.2816ZM14.4211 14.1763C15.0504 14.1763 15.5605 14.6865 15.5605 15.3158H16.8605C16.8605 13.9685 15.7683 12.8763 14.4211 12.8763V14.1763ZM8.40263 15.3158C8.40263 15.9451 7.89247 16.4553 7.26316 16.4553V17.7553C8.61044 17.7553 9.70263 16.6631 9.70263 15.3158H8.40263ZM7.26316 16.4553C6.63384 16.4553 6.12368 15.9451 6.12368 15.3158H4.82368C4.82368 16.6631 5.91587 17.7553 7.26316 17.7553V16.4553ZM6.12368 15.3158C6.12368 14.6865 6.63384 14.1763 7.26316 14.1763V12.8763C5.91587 12.8763 4.82368 13.9685 4.82368 15.3158H6.12368ZM7.26316 14.1763C7.89247 14.1763 8.40263 14.6865 8.40263 15.3158H9.70263C9.70263 13.9685 8.61044 12.8763 7.26316 12.8763V14.1763ZM3.68421 3.43947H18V2.13947H3.68421V3.43947ZM17.3834 2.58393L14.6991 10.6366L15.9324 11.0477L18.6166 2.99502L17.3834 2.58393ZM15.3158 10.1921H5.02632V11.4921H15.3158V10.1921ZM14.4211 12.8763H5.80232V14.1763H14.4211V12.8763ZM3.23684 0.35H1V1.65H3.23684V0.35ZM5.80232 12.8763C5.68052 12.8763 5.57726 12.7868 5.56004 12.6662L4.27311 12.85C4.38182 13.6111 5.03358 14.1763 5.80232 14.1763V12.8763ZM4.13595 2.69755L3.88031 0.908076L2.59337 1.09192L2.84901 2.8814L4.13595 2.69755ZM3.68421 2.13947H3.49248V3.43947H3.68421V2.13947ZM5.56004 12.6662L5.28632 10.7502L3.99939 10.934L4.27311 12.85L5.56004 12.6662ZM5.28632 10.7502L4.13595 2.69755L2.84901 2.8814L3.99939 10.934L5.28632 10.7502ZM5.02632 10.1921H4.64286V11.4921H5.02632V10.1921Z" fill="#969CAF"/>
</svg>
