<svg width="14" height="15" viewBox="0 0 14 15" fill="none" xmlns="http://www.w3.org/2000/svg">
<path d="M12.1 3.5C12.1 3.16863 11.8314 2.9 11.5 2.9C11.1686 2.9 10.9 3.16863 10.9 3.5H12.1ZM3.1 3.5C3.1 3.16863 2.83137 2.9 2.5 2.9C2.16863 2.9 1.9 3.16863 1.9 3.5H3.1ZM8.65 3.5C8.65 3.83137 8.91863 4.1 9.25 4.1C9.58137 4.1 9.85 3.83137 9.85 3.5H8.65ZM4.15 3.5C4.15 3.83137 4.41863 4.1 4.75 4.1C5.08137 4.1 5.35 3.83137 5.35 3.5H4.15ZM1 2.9C0.668629 2.9 0.4 3.16863 0.4 3.5C0.4 3.83137 0.668629 4.1 1 4.1V2.9ZM13 4.1C13.3314 4.1 13.6 3.83137 13.6 3.5C13.6 3.16863 13.3314 2.9 13 2.9V4.1ZM6.1 6.5C6.1 6.16863 5.83137 5.9 5.5 5.9C5.16863 5.9 4.9 6.16863 4.9 6.5H6.1ZM4.9 11C4.9 11.3314 5.16863 11.6 5.5 11.6C5.83137 11.6 6.1 11.3314 6.1 11H4.9ZM9.1 6.5C9.1 6.16863 8.83137 5.9 8.5 5.9C8.16863 5.9 7.9 6.16863 7.9 6.5H9.1ZM7.9 11C7.9 11.3314 8.16863 11.6 8.5 11.6C8.83137 11.6 9.1 11.3314 9.1 11H7.9ZM10.9 3.5V12.5H12.1V3.5H10.9ZM10 13.4H4V14.6H10V13.4ZM3.1 12.5V3.5H1.9V12.5H3.1ZM4 13.4C3.50294 13.4 3.1 12.9971 3.1 12.5H1.9C1.9 13.6598 2.8402 14.6 4 14.6V13.4ZM10.9 12.5C10.9 12.9971 10.4971 13.4 10 13.4V14.6C11.1598 14.6 12.1 13.6598 12.1 12.5H10.9ZM9.85 3.5V2.75H8.65V3.5H9.85ZM7.75 0.65H6.25V1.85H7.75V0.65ZM4.15 2.75V3.5H5.35V2.75H4.15ZM6.25 0.65C5.0902 0.65 4.15 1.5902 4.15 2.75H5.35C5.35 2.25294 5.75294 1.85 6.25 1.85V0.65ZM9.85 2.75C9.85 1.5902 8.9098 0.65 7.75 0.65V1.85C8.24706 1.85 8.65 2.25294 8.65 2.75H9.85ZM1 4.1H13V2.9H1V4.1ZM4.9 6.5V11H6.1V6.5H4.9ZM7.9 6.5V11H9.1V6.5H7.9Z" fill="#40BFFF"/>
</svg>
