<svg width="18" height="19" viewBox="0 0 18 19" fill="none" xmlns="http://www.w3.org/2000/svg">
<path d="M1 1V0.25C0.727356 0.25 0.476187 0.397958 0.344018 0.636424C0.211849 0.87489 0.2195 1.1663 0.364001 1.3975L1 1ZM17 1L17.636 1.3975C17.7805 1.1663 17.7882 0.87489 17.656 0.636424C17.5238 0.397958 17.2726 0.25 17 0.25V1ZM6 9H6.75C6.75 8.85944 6.7105 8.7217 6.636 8.6025L6 9ZM12 9L11.364 8.6025C11.2895 8.7217 11.25 8.85944 11.25 9H12ZM6 15H5.25C5.25 15.2841 5.4105 15.5438 5.66459 15.6708L6 15ZM12 18L11.6646 18.6708C11.8971 18.7871 12.1732 18.7746 12.3943 18.638C12.6154 18.5013 12.75 18.2599 12.75 18H12ZM0.364001 1.3975L5.364 9.3975L6.636 8.6025L1.636 0.602501L0.364001 1.3975ZM12.636 9.3975L17.636 1.3975L16.364 0.602501L11.364 8.6025L12.636 9.3975ZM5.25 9V15H6.75V9H5.25ZM5.66459 15.6708L11.6646 18.6708L12.3354 17.3292L6.33541 14.3292L5.66459 15.6708ZM12.75 18V9H11.25V18H12.75ZM1 1.75H17V0.25H1V1.75Z" fill="#40BFFF"/>
</svg>
