<svg width="63" height="19" viewBox="0 0 63 19" fill="none" xmlns="http://www.w3.org/2000/svg">
<path d="M11.2266 15.7266H3.35156V1.08984H0.726562V18H11.2266V15.7266ZM20.0859 0.808594C15.2109 0.808594 12.1641 4.17188 12.1641 9.55078C12.1641 14.9297 15.2109 18.2812 20.0859 18.2812C24.9492 18.2812 28.0078 14.9297 28.0078 9.55078C28.0078 4.17188 24.9492 0.808594 20.0859 0.808594ZM20.0859 3.11719C23.2969 3.11719 25.3125 5.60156 25.3125 9.55078C25.3125 13.4883 23.2969 15.9727 20.0859 15.9727C16.875 15.9727 14.8477 13.4883 14.8477 9.55078C14.8477 5.60156 16.875 3.11719 20.0859 3.11719ZM45.082 10.9688V9.24609H38.1211V11.3672H42.4922V11.6602C42.457 14.2266 40.5586 15.9844 37.8164 15.9844C34.5938 15.9844 32.5898 13.4883 32.5898 9.44531C32.5898 5.47266 34.5352 3.10547 37.7695 3.10547C39.9727 3.10547 41.625 4.3125 42.2578 6.41016H44.9531C44.3672 3.03516 41.5195 0.808594 37.7578 0.808594C32.9414 0.808594 29.9062 4.13672 29.9062 9.46875C29.9062 14.8945 32.9531 18.2812 37.793 18.2812C42.375 18.2812 45.082 15.5508 45.082 10.9688ZM54.9609 0.808594C50.0859 0.808594 47.0391 4.17188 47.0391 9.55078C47.0391 14.9297 50.0859 18.2812 54.9609 18.2812C59.8242 18.2812 62.8828 14.9297 62.8828 9.55078C62.8828 4.17188 59.8242 0.808594 54.9609 0.808594ZM54.9609 3.11719C58.1719 3.11719 60.1875 5.60156 60.1875 9.55078C60.1875 13.4883 58.1719 15.9727 54.9609 15.9727C51.75 15.9727 49.7227 13.4883 49.7227 9.55078C49.7227 5.60156 51.75 3.11719 54.9609 3.11719Z" fill="#40BFFF"/>
</svg>
