<svg width="20" height="18" viewBox="0 0 20 18" fill="none" xmlns="http://www.w3.org/2000/svg">
<path d="M2.25 17C2.25 17.4142 2.58579 17.75 3 17.75C3.41421 17.75 3.75 17.4142 3.75 17H2.25ZM10.75 1C10.75 0.585786 10.4142 0.25 10 0.25C9.58579 0.25 9.25 0.585786 9.25 1H10.75ZM17.75 1C17.75 0.585786 17.4142 0.25 17 0.25C16.5858 0.25 16.25 0.585786 16.25 1H17.75ZM16.25 17C16.25 17.4142 16.5858 17.75 17 17.75C17.4142 17.75 17.75 17.4142 17.75 17H16.25ZM18.25 9C18.25 9.69036 17.6904 10.25 17 10.25V11.75C18.5188 11.75 19.75 10.5188 19.75 9H18.25ZM17 10.25C16.3096 10.25 15.75 9.69036 15.75 9H14.25C14.25 10.5188 15.4812 11.75 17 11.75V10.25ZM15.75 9C15.75 8.30964 16.3096 7.75 17 7.75V6.25C15.4812 6.25 14.25 7.48122 14.25 9H15.75ZM17 7.75C17.6904 7.75 18.25 8.30964 18.25 9H19.75C19.75 7.48122 18.5188 6.25 17 6.25V7.75ZM11.25 15C11.25 15.6904 10.6904 16.25 10 16.25V17.75C11.5188 17.75 12.75 16.5188 12.75 15H11.25ZM10 16.25C9.30964 16.25 8.75 15.6904 8.75 15H7.25C7.25 16.5188 8.48122 17.75 10 17.75V16.25ZM8.75 15C8.75 14.3096 9.30964 13.75 10 13.75V12.25C8.48122 12.25 7.25 13.4812 7.25 15H8.75ZM10 13.75C10.6904 13.75 11.25 14.3096 11.25 15H12.75C12.75 13.4812 11.5188 12.25 10 12.25V13.75ZM4.25 3C4.25 3.69036 3.69036 4.25 3 4.25V5.75C4.51878 5.75 5.75 4.51878 5.75 3H4.25ZM3 4.25C2.30964 4.25 1.75 3.69036 1.75 3H0.25C0.25 4.51878 1.48122 5.75 3 5.75V4.25ZM1.75 3C1.75 2.30964 2.30964 1.75 3 1.75V0.25C1.48122 0.25 0.25 1.48122 0.25 3H1.75ZM3 1.75C3.69036 1.75 4.25 2.30964 4.25 3H5.75C5.75 1.48122 4.51878 0.25 3 0.25V1.75ZM2.25 5V17H3.75V5H2.25ZM9.25 1V13H10.75V1H9.25ZM16.25 1V7H17.75V1H16.25ZM16.25 11V17H17.75V11H16.25Z" fill="#40BFFF"/>
</svg>
