<svg width="18" height="18" viewBox="0 0 18 18" fill="none" xmlns="http://www.w3.org/2000/svg">
<path d="M16.9995 12.9793V15.3879C17.0032 16.3087 16.1753 17.0776 15.2457 16.9937C7.22222 17 1 10.72 1.00628 2.75039C0.922556 1.82573 1.68762 1.00094 2.60721 1.00008H5.02067C5.41109 0.996243 5.78959 1.13422 6.08561 1.3883C6.92723 2.11066 7.46856 4.56246 7.26028 5.53714C7.09767 6.2981 6.33058 6.83048 5.80906 7.35097C6.95429 9.36105 8.62191 11.0254 10.636 12.1683C11.1575 11.6478 11.6909 10.8823 12.4534 10.72C13.4315 10.5118 15.8991 11.0539 16.6186 11.9014C16.8737 12.2019 17.0093 12.5855 16.9995 12.9793Z" stroke="#40BFFF" stroke-width="1.2" stroke-linecap="round" stroke-linejoin="round"/>
</svg>
