<svg width="16" height="16" viewBox="0 0 16 16" fill="none" xmlns="http://www.w3.org/2000/svg">
<path d="M14.1363 15.197C14.4291 15.4899 14.904 15.4899 15.1969 15.197C15.4898 14.9041 15.4898 14.4292 15.1969 14.1363L14.1363 15.197ZM12.348 7.2157C12.348 10.0502 10.0501 12.348 7.2156 12.348V13.848C10.8786 13.848 13.848 10.8786 13.848 7.2157H12.348ZM7.2156 12.348C4.38108 12.348 2.08325 10.0502 2.08325 7.2157H0.583252C0.583252 10.8786 3.55266 13.848 7.2156 13.848V12.348ZM2.08325 7.2157C2.08325 4.38118 4.38108 2.08334 7.2156 2.08334V0.583344C3.55266 0.583344 0.583252 3.55275 0.583252 7.2157H2.08325ZM7.2156 2.08334C10.0501 2.08334 12.348 4.38118 12.348 7.2157H13.848C13.848 3.55275 10.8786 0.583344 7.2156 0.583344V2.08334ZM15.1969 14.1363L11.9125 10.852L10.8519 11.9126L14.1363 15.197L15.1969 14.1363Z" fill="#40BFFF"/>
</svg>
