<svg width="18" height="18" viewBox="0 0 18 18" fill="none" xmlns="http://www.w3.org/2000/svg">
<path d="M17 1H1V17H17V1Z" stroke="#F25E7F" stroke-width="1.5" stroke-miterlimit="10"/>
<path d="M8.99852 12.5024C10.9426 12.5024 12.5185 10.9264 12.5185 8.9824C12.5185 7.03836 10.9426 5.4624 8.99852 5.4624C7.05447 5.4624 5.47852 7.03836 5.47852 8.9824C5.47852 10.9264 7.05447 12.5024 8.99852 12.5024Z" stroke="#F25E7F" stroke-width="1.5" stroke-miterlimit="10"/>
<path d="M13.7185 5.30241C14.2928 5.30241 14.7585 4.83679 14.7585 4.26241C14.7585 3.68804 14.2928 3.22241 13.7185 3.22241C13.1441 3.22241 12.6785 3.68804 12.6785 4.26241C12.6785 4.83679 13.1441 5.30241 13.7185 5.30241Z" fill="#F25E7F"/>
</svg>
