<svg width="19" height="18" viewBox="0 0 19 18" fill="none" xmlns="http://www.w3.org/2000/svg">
<path d="M14.4211 13.5263C13.4328 13.5263 12.6316 14.3275 12.6316 15.3158C12.6316 16.3041 13.4328 17.1053 14.4211 17.1053C15.4094 17.1053 16.2105 16.3041 16.2105 15.3158C16.2105 14.3275 15.4094 13.5263 14.4211 13.5263ZM14.4211 13.5263H5.80232C5.35705 13.5263 4.97954 13.1989 4.91657 12.7581L4.64286 10.8421M1 1H3.23684L3.49248 2.78947M3.49248 2.78947H3.68421H18L15.3158 10.8421H5.02632H4.64286M3.49248 2.78947L4.64286 10.8421M9.05263 15.3158C9.05263 16.3041 8.25146 17.1053 7.26316 17.1053C6.27486 17.1053 5.47368 16.3041 5.47368 15.3158C5.47368 14.3275 6.27486 13.5263 7.26316 13.5263C8.25146 13.5263 9.05263 14.3275 9.05263 15.3158Z" stroke="#969CAF" stroke-width="1.3" stroke-linecap="round" stroke-linejoin="round"/>
</svg>
