<svg width="20" height="18" viewBox="0 0 20 18" fill="none" xmlns="http://www.w3.org/2000/svg">
<path d="M17 11C18.1046 11 19 10.1046 19 9C19 7.89543 18.1046 7 17 7M17 11C15.8954 11 15 10.1046 15 9C15 7.89543 15.8954 7 17 7M17 11V17M17 7V1M10 13C8.89543 13 8 13.8954 8 15C8 16.1046 8.89543 17 10 17C11.1046 17 12 16.1046 12 15C12 13.8954 11.1046 13 10 13ZM10 13V1M3 5C4.10457 5 5 4.10457 5 3C5 1.89543 4.10457 1 3 1C1.89543 1 1 1.89543 1 3C1 4.10457 1.89543 5 3 5ZM3 5V17" stroke="#40BFFF" stroke-width="1.5" stroke-linecap="round"/>
</svg>
