<svg width="18" height="18" viewBox="0 0 18 18" fill="none" xmlns="http://www.w3.org/2000/svg">
<path d="M0.999023 13.2353L0.468693 12.705L0.249023 12.9246V13.2353H0.999023ZM13.2343 1L13.7646 0.46967C13.4718 0.176777 12.9969 0.176777 12.704 0.46967L13.2343 1ZM16.999 4.76471L17.5294 5.29504C17.8222 5.00214 17.8222 4.52727 17.5294 4.23438L16.999 4.76471ZM4.76373 17V17.75H5.07439L5.29406 17.5303L4.76373 17ZM0.999023 17H0.249023C0.249023 17.4142 0.58481 17.75 0.999023 17.75L0.999023 17ZM1.52935 13.7656L13.7646 1.53033L12.704 0.46967L0.468693 12.705L1.52935 13.7656ZM12.704 1.53033L16.4687 5.29504L17.5294 4.23438L13.7646 0.46967L12.704 1.53033ZM16.4687 4.23438L4.2334 16.4697L5.29406 17.5303L17.5294 5.29504L16.4687 4.23438ZM4.76373 16.25H0.999023V17.75H4.76373V16.25ZM1.74902 17V13.2353H0.249023V17H1.74902ZM9.88046 4.35386L13.6452 8.11857L14.7058 7.05791L10.9411 3.2932L9.88046 4.35386Z" fill="#40BFFF"/>
</svg>
