<svg width="24" height="24" viewBox="0 0 24 24" fill="none" xmlns="http://www.w3.org/2000/svg">
<path d="M19.4888 7.60408V10.3349C18.4758 10.2844 17.4664 10.0629 16.5529 9.62947L16.5529 9.62945L16.5505 9.62833C16.1342 9.43992 15.7441 9.19622 15.3551 8.94189L15.1236 8.79061L15.123 9.0671C15.1213 9.81331 15.1218 10.5587 15.1222 11.3034C15.1232 12.7465 15.1241 14.187 15.109 15.6255C15.0514 16.6464 14.7142 17.6612 14.1221 18.5001L14.1221 18.5001L14.1208 18.5021C13.1666 19.901 11.5087 20.8136 9.80944 20.842L9.80944 20.8419L9.80339 20.8422C8.76316 20.9017 7.72077 20.618 6.82966 20.0926C5.35569 19.2235 4.31866 17.6318 4.16698 15.9276C4.14786 15.5627 4.14489 15.1971 4.15807 14.832C4.29044 13.445 4.97757 12.1177 6.0421 11.2154L6.04211 11.2154L6.04363 11.2141C7.22229 10.1876 8.86116 9.68614 10.4076 9.93525C10.4135 10.5297 10.4034 11.1187 10.3932 11.7102C10.3862 12.1189 10.3792 12.5287 10.3774 12.9421C9.64289 12.7596 8.81644 12.8527 8.17867 13.2949C7.67726 13.6257 7.29808 14.1117 7.09915 14.6785C6.95534 15.0336 6.96959 15.4235 6.98218 15.7679C6.98434 15.8273 6.98646 15.8853 6.98772 15.9415L6.98792 15.9507L6.98923 15.9597C7.17759 17.2598 8.42248 18.3575 9.77045 18.2415C10.6611 18.2297 11.5071 17.7142 11.9677 16.9634L11.9678 16.9634L11.9704 16.9589C11.9813 16.9395 11.9926 16.9199 12.0041 16.8998C12.1331 16.6745 12.2879 16.4043 12.2974 16.0942C12.3513 15.1122 12.3503 14.1314 12.3493 13.1541C12.349 12.792 12.3486 12.4305 12.351 12.0696L12.351 12.0689C12.3532 10.9839 12.3527 9.90057 12.3522 8.81817C12.3513 6.93121 12.3503 5.0472 12.364 3.16307C12.8769 3.15633 13.3863 3.15565 13.8958 3.15497C14.2654 3.15448 14.6351 3.15399 15.0064 3.15118C15.0928 4.28084 15.5161 5.42639 16.3545 6.23657C17.1936 7.06854 18.3586 7.45925 19.4888 7.60408Z" fill="black" stroke="white" stroke-width="0.3"/>
</svg>
