<svg width="24" height="24" viewBox="0 0 24 24" fill="none" xmlns="http://www.w3.org/2000/svg">
<path d="M18.304 5.61562C16.6205 3.92812 14.3786 3 11.996 3C7.07812 3 3.07634 7.00179 3.07634 11.9196C3.07634 13.4906 3.48616 15.0254 4.26562 16.3795L3 21L7.72902 19.7585C9.0308 20.4696 10.4973 20.8433 11.992 20.8433H11.996C16.9098 20.8433 21 16.8415 21 11.9237C21 9.54107 19.9875 7.30312 18.304 5.61562ZM11.996 19.3406C10.6621 19.3406 9.35625 18.983 8.2192 18.308L7.95 18.1473L5.14554 18.8826L5.89286 16.1464L5.71607 15.8652C4.97277 14.6839 4.58304 13.3219 4.58304 11.9196C4.58304 7.83348 7.90982 4.5067 12 4.5067C13.9808 4.5067 15.8411 5.27812 17.2393 6.68036C18.6375 8.08259 19.4973 9.94286 19.4933 11.9237C19.4933 16.0138 16.0821 19.3406 11.996 19.3406ZM16.0621 13.7879C15.8411 13.6754 14.7442 13.1371 14.5393 13.0647C14.3344 12.9884 14.1857 12.9522 14.0371 13.1772C13.8884 13.4022 13.4625 13.9004 13.3299 14.0531C13.2013 14.2018 13.0688 14.2219 12.8478 14.1094C11.5379 13.4545 10.6781 12.9402 9.81429 11.4576C9.58527 11.0638 10.0433 11.092 10.4692 10.2402C10.5415 10.0915 10.5054 9.96295 10.4491 9.85045C10.3929 9.73795 9.94688 8.64107 9.76205 8.19509C9.58125 7.76116 9.39643 7.82143 9.25982 7.81339C9.13125 7.80536 8.98259 7.80536 8.83393 7.80536C8.68527 7.80536 8.4442 7.86161 8.23929 8.08259C8.03437 8.30759 7.45982 8.84598 7.45982 9.94286C7.45982 11.0397 8.25938 12.1004 8.36786 12.2491C8.48036 12.3978 9.93884 14.6478 12.1768 15.6161C13.5911 16.2268 14.1455 16.279 14.8527 16.1746C15.2826 16.1103 16.1705 15.6362 16.3554 15.1138C16.5402 14.5915 16.5402 14.1455 16.4839 14.0531C16.4317 13.9527 16.283 13.8964 16.0621 13.7879Z" fill="#53D160"/>
</svg>
