<svg width="24" height="24" viewBox="0 0 24 24" fill="none" xmlns="http://www.w3.org/2000/svg">
<path d="M23.5861 4.13794H0.413812C0.185297 4.13794 0 4.32319 0 4.5517V19.4482C0 19.6767 0.185297 19.862 0.413812 19.862H23.5862C23.8147 19.862 24 19.6767 24 19.4482V4.5517C24 4.32319 23.8147 4.13794 23.5861 4.13794Z" fill="#82C3D2"/>
<path d="M2.7907 6.02117C2.75325 5.86259 2.74392 5.80414 2.81508 5.73303C2.84976 5.69834 2.84976 5.64214 2.81508 5.60745C2.78039 5.57277 2.72418 5.57277 2.6895 5.60745C2.5455 5.7515 2.57986 5.90098 2.61712 6.05928C2.50359 6.0222 2.38584 6.04972 2.32275 6.12931C2.29144 6.16901 2.23087 6.28039 2.34436 6.45823C2.37075 6.49953 2.42531 6.51167 2.46698 6.48551C2.50837 6.45912 2.52042 6.40414 2.49403 6.36289C2.45147 6.29591 2.4502 6.25461 2.46211 6.23951C2.47617 6.22166 2.51976 6.21223 2.56542 6.22841C2.5949 6.23862 2.66343 6.27401 2.66343 6.38089C2.66343 6.46625 2.62397 6.54448 2.55515 6.5953C2.4862 6.6463 2.39695 6.66069 2.31094 6.63397C2.20472 6.60153 2.13051 6.48964 2.13051 6.36181C2.13051 6.27036 2.15011 6.17792 2.18611 6.09692C2.19183 6.08497 2.32758 5.80377 2.36254 5.69895C2.43169 5.49163 2.36142 5.38738 2.31347 5.34383C2.24929 5.28538 2.1555 5.2708 2.07478 5.30619C2.0625 5.31163 2.05237 5.3195 2.04173 5.32681C2.03109 5.31945 2.02092 5.31163 2.00869 5.30619C1.92801 5.2708 1.83426 5.28538 1.77 5.34383C1.72205 5.38738 1.65178 5.49167 1.72092 5.69895C1.75589 5.80377 1.89159 6.08497 1.89609 6.09434C1.93326 6.17797 1.9529 6.27041 1.9529 6.36186C1.9529 6.48973 1.87875 6.60158 1.77248 6.63401C1.68614 6.66069 1.59717 6.64648 1.52827 6.59534C1.45945 6.54448 1.41998 6.4663 1.41998 6.38094C1.41998 6.27406 1.48852 6.23872 1.518 6.22845C1.5638 6.21233 1.60716 6.22166 1.62131 6.23956C1.63322 6.25466 1.63195 6.29595 1.58939 6.36294C1.563 6.40423 1.57505 6.45922 1.61644 6.48556C1.65816 6.51195 1.71291 6.49962 1.73906 6.45828C1.8525 6.28044 1.79198 6.16911 1.76067 6.12936C1.69753 6.04977 1.57983 6.02225 1.4663 6.05933C1.50361 5.90112 1.53792 5.75155 1.39392 5.6075C1.35923 5.57281 1.30303 5.57281 1.26834 5.6075C1.23366 5.64219 1.23366 5.69839 1.26834 5.73308C1.33945 5.80419 1.33022 5.86264 1.29272 6.02122C1.27022 6.11623 1.24228 6.23473 1.24228 6.3808C1.24228 6.47797 1.27645 6.57092 1.33392 6.64728H1.33106C1.28198 6.64728 1.24223 6.68698 1.24223 6.73611C1.24223 6.78519 1.28194 6.82494 1.33106 6.82494H1.33392C1.27645 6.90129 1.24228 6.9942 1.24228 7.09137C1.24228 7.23743 1.27022 7.35593 1.29267 7.451C1.33012 7.60957 1.33945 7.66803 1.2683 7.73914C1.23361 7.77382 1.23361 7.83003 1.2683 7.86471C1.28564 7.88206 1.30837 7.89073 1.33111 7.89073C1.3538 7.89073 1.37658 7.88206 1.39392 7.86471C1.53792 7.72067 1.50356 7.57114 1.4663 7.41289C1.57983 7.44982 1.69758 7.42245 1.76067 7.34286C1.79198 7.30315 1.85255 7.19178 1.73906 7.01394C1.71276 6.97264 1.65787 6.96036 1.61644 6.98665C1.57505 7.01304 1.563 7.06803 1.58939 7.10928C1.63195 7.17626 1.63322 7.21756 1.62131 7.23265C1.6072 7.25033 1.5638 7.2597 1.518 7.24376C1.48852 7.23354 1.41998 7.19815 1.41998 7.09128C1.41998 7.00592 1.45945 6.92768 1.52827 6.87687C1.59722 6.82587 1.68637 6.81129 1.77248 6.8382C1.8787 6.87064 1.9529 6.98253 1.9529 7.11036C1.9529 7.20181 1.93331 7.29425 1.89609 7.37787L1.31433 8.68667C1.26652 8.7942 1.24223 8.90857 1.24223 9.02632C1.24223 9.17787 1.31114 9.31624 1.41961 9.40071C1.31119 9.48518 1.24223 9.62356 1.24223 9.7751C1.24223 9.8929 1.26656 10.0072 1.31433 10.1148L1.896 11.4235C1.93317 11.5071 1.95281 11.5995 1.95281 11.691C1.95281 11.8188 1.87866 11.9307 1.77239 11.9631C1.68605 11.99 1.59708 11.9756 1.52817 11.9245C1.45936 11.8736 1.41989 11.7954 1.41989 11.7101C1.41989 11.6032 1.48842 11.5678 1.51791 11.5576C1.5637 11.5416 1.60706 11.5508 1.62122 11.5687C1.63312 11.5838 1.63186 11.6251 1.5893 11.6921C1.56291 11.7333 1.57495 11.7883 1.61634 11.8147C1.65806 11.8411 1.71281 11.8289 1.73897 11.7874C1.85241 11.6096 1.79189 11.4982 1.76058 11.4585C1.69744 11.3789 1.57973 11.3515 1.4662 11.3884C1.50352 11.2302 1.53783 11.0807 1.39383 10.9366C1.35914 10.9019 1.30294 10.9019 1.26825 10.9366C1.23356 10.9713 1.23356 11.0275 1.26825 11.0622C1.33936 11.1333 1.33012 11.1918 1.29262 11.3503C1.27017 11.4454 1.24223 11.5639 1.24223 11.71C1.24223 11.8071 1.27641 11.9001 1.33387 11.9764H1.33102C1.28194 11.9764 1.24219 12.0161 1.24219 12.0653C1.24219 12.1144 1.28189 12.1541 1.33102 12.1541H1.33387C1.27636 12.2305 1.24223 12.3234 1.24223 12.4206C1.24223 12.5666 1.27017 12.6851 1.29262 12.7802C1.33008 12.9388 1.33941 12.9972 1.26825 13.0683C1.23356 13.103 1.23356 13.1592 1.26825 13.1939C1.28559 13.2113 1.30833 13.2199 1.33106 13.2199C1.35375 13.2199 1.37653 13.2113 1.39387 13.1939C1.53787 13.0499 1.50352 12.9003 1.46625 12.7421C1.57978 12.779 1.69753 12.7517 1.76062 12.6721C1.79194 12.6324 1.8525 12.521 1.73901 12.3431C1.71272 12.3018 1.65783 12.2896 1.61639 12.3159C1.575 12.3423 1.56295 12.3972 1.58934 12.4385C1.63191 12.5055 1.63317 12.5468 1.62126 12.5619C1.60716 12.5797 1.56375 12.5891 1.51795 12.573C1.48847 12.5628 1.41994 12.5274 1.41994 12.4205C1.41994 12.3351 1.45941 12.2569 1.52822 12.2061C1.59717 12.1551 1.68633 12.1405 1.77244 12.1674C1.87866 12.1998 1.95286 12.3117 1.95286 12.4396C1.95286 12.531 1.93326 12.6235 1.89605 12.7071L1.31433 14.016C1.26652 14.1235 1.24223 14.2379 1.24223 14.3557C1.24223 14.5072 1.31114 14.6456 1.41961 14.7301C1.31119 14.8145 1.24223 14.9529 1.24223 15.1045C1.24223 15.2222 1.26656 15.3366 1.31433 15.4441L1.896 16.7528C1.93317 16.8364 1.95281 16.9289 1.95281 17.0203C1.95281 17.1482 1.87866 17.26 1.77239 17.2925C1.68605 17.3194 1.59708 17.3048 1.52817 17.2538C1.45936 17.2029 1.41989 17.1248 1.41989 17.0394C1.41989 16.9325 1.48842 16.8972 1.51791 16.8869C1.5637 16.8709 1.60706 16.8801 1.62122 16.898C1.63312 16.9131 1.63186 16.9544 1.5893 17.0214C1.56291 17.0627 1.57495 17.1176 1.61634 17.144C1.65806 17.1704 1.71281 17.1582 1.73897 17.1167C1.85241 16.9389 1.79189 16.8276 1.76058 16.7878C1.69744 16.708 1.57973 16.6807 1.4662 16.7178C1.50352 16.5596 1.53783 16.41 1.39383 16.266C1.35914 16.2313 1.30294 16.2313 1.26825 16.266C1.23356 16.3007 1.23356 16.3569 1.26825 16.3915C1.33936 16.4627 1.33012 16.5211 1.29262 16.6797C1.27017 16.7747 1.24223 16.8932 1.24223 17.0393C1.24223 17.1785 1.30894 17.311 1.42045 17.3946C1.30894 17.4781 1.24223 17.6107 1.24223 17.7499C1.24223 17.8959 1.27017 18.0144 1.29262 18.1095C1.33008 18.268 1.33941 18.3265 1.26825 18.3976C1.23356 18.4323 1.23356 18.4885 1.26825 18.5232C1.28559 18.5406 1.30833 18.5492 1.33106 18.5492C1.35375 18.5492 1.37653 18.5406 1.39387 18.5232C1.53787 18.3792 1.50352 18.2296 1.46625 18.0714C1.57978 18.1083 1.69753 18.081 1.76062 18.0014C1.79194 17.9617 1.8525 17.8503 1.73901 17.6724C1.71272 17.6311 1.65783 17.619 1.61639 17.6452C1.575 17.6716 1.56295 17.7265 1.58934 17.7678C1.63191 17.8348 1.63317 17.8761 1.62126 17.8912C1.60716 17.909 1.56375 17.9182 1.51795 17.9023C1.48847 17.8921 1.41994 17.8567 1.41994 17.7498C1.41994 17.6644 1.45941 17.5862 1.52822 17.5354C1.59717 17.4844 1.68633 17.47 1.77244 17.4967C1.87866 17.5291 1.95286 17.641 1.95286 17.7689C1.95286 17.8603 1.93326 17.9528 1.89726 18.0338C1.89155 18.0457 1.7558 18.3269 1.72083 18.4317C1.65169 18.6391 1.72195 18.7433 1.76991 18.7869C1.81092 18.8242 1.86375 18.8438 1.91775 18.8438C1.94836 18.8438 1.97939 18.8373 2.00864 18.8245C2.02092 18.8191 2.03105 18.8112 2.04169 18.8039C2.05233 18.8113 2.0625 18.8191 2.07473 18.8245C2.10394 18.8374 2.13501 18.8438 2.16562 18.8438C2.21948 18.8438 2.2724 18.8242 2.31347 18.7869C2.36142 18.7433 2.43169 18.639 2.36254 18.4317C2.32758 18.3269 2.19187 18.0457 2.18737 18.0363C2.1502 17.9527 2.13056 17.8603 2.13056 17.7688C2.13056 17.6409 2.20472 17.5291 2.31098 17.4967C2.39737 17.4699 2.48629 17.4843 2.5552 17.5353C2.62401 17.5862 2.66348 17.6644 2.66348 17.7497C2.66348 17.8566 2.59495 17.892 2.56547 17.9022C2.51986 17.9182 2.47617 17.909 2.46215 17.8911C2.45025 17.876 2.45151 17.8347 2.49408 17.7677C2.52047 17.7264 2.50842 17.6715 2.46703 17.6451C2.42554 17.6191 2.37084 17.6312 2.3444 17.6724C2.23097 17.8502 2.29148 17.9616 2.32279 18.0013C2.38594 18.0809 2.50364 18.1083 2.61717 18.0714C2.57986 18.2296 2.54554 18.3791 2.68954 18.5232C2.70689 18.5405 2.72962 18.5492 2.75236 18.5492C2.77509 18.5492 2.79783 18.5405 2.81517 18.5232C2.84986 18.4885 2.84986 18.4323 2.81517 18.3976C2.74406 18.3265 2.75329 18.268 2.79079 18.1095C2.81325 18.0144 2.84118 17.8959 2.84118 17.7498C2.84118 17.6106 2.77448 17.4781 2.66297 17.3945C2.77448 17.311 2.84118 17.1785 2.84118 17.0392C2.84118 16.8932 2.81325 16.7747 2.79079 16.6796C2.75334 16.5211 2.74401 16.4626 2.81517 16.3914C2.84986 16.3568 2.84986 16.3006 2.81517 16.2659C2.78048 16.2312 2.72428 16.2312 2.68959 16.2659C2.54559 16.4099 2.57995 16.5594 2.61722 16.7177C2.50369 16.6806 2.38594 16.7079 2.32284 16.7877C2.29153 16.8274 2.23097 16.9388 2.34445 17.1166C2.37084 17.1579 2.4254 17.1701 2.46708 17.1439C2.50847 17.1175 2.52051 17.0626 2.49412 17.0213C2.45156 16.9543 2.45029 16.913 2.4622 16.8979C2.47626 16.8801 2.51986 16.8709 2.56551 16.8868C2.595 16.897 2.66353 16.9324 2.66353 17.0393C2.66353 17.1247 2.62406 17.2029 2.55525 17.2537C2.48629 17.3047 2.39704 17.3193 2.31103 17.2924C2.20481 17.2599 2.13061 17.1481 2.13061 17.0202C2.13061 16.9288 2.1502 16.8363 2.18742 16.7527L2.76909 15.444C2.8169 15.3365 2.84118 15.2221 2.84118 15.1044C2.84118 14.9528 2.77228 14.8144 2.66381 14.73C2.77223 14.6455 2.84118 14.5071 2.84118 14.3556C2.84118 14.2378 2.81686 14.1235 2.76909 14.0159L2.18747 12.7073C2.1503 12.6237 2.13065 12.5313 2.13065 12.4398C2.13065 12.3119 2.20481 12.2001 2.31108 12.1676C2.39747 12.1409 2.48639 12.1553 2.55529 12.2063C2.62411 12.2572 2.66358 12.3354 2.66358 12.4207C2.66358 12.5276 2.59504 12.5629 2.56556 12.5732C2.51995 12.5893 2.47626 12.58 2.46225 12.5621C2.45034 12.547 2.45161 12.5057 2.49417 12.4387C2.52056 12.3974 2.50851 12.3425 2.46712 12.3161C2.42564 12.2901 2.37094 12.3022 2.3445 12.3434C2.23106 12.5212 2.29158 12.6325 2.32289 12.6723C2.38603 12.7519 2.50373 12.7793 2.61726 12.7423C2.57995 12.9005 2.54564 13.0501 2.68964 13.1942C2.70698 13.2115 2.72972 13.2202 2.75245 13.2202C2.77518 13.2202 2.79792 13.2115 2.81526 13.1942C2.84995 13.1595 2.84995 13.1033 2.81526 13.0686C2.74415 12.9975 2.75339 12.939 2.79089 12.7804C2.81334 12.6854 2.84128 12.5669 2.84128 12.4208C2.84128 12.3236 2.80711 12.2307 2.74964 12.1543H2.7525C2.80158 12.1543 2.84133 12.1146 2.84133 12.0655C2.84133 12.0164 2.80162 11.9767 2.7525 11.9767H2.74964C2.80715 11.9003 2.84128 11.8075 2.84128 11.7102C2.84128 11.5641 2.81334 11.4456 2.79089 11.3506C2.75343 11.192 2.74411 11.1335 2.81526 11.0624C2.84995 11.0277 2.84995 10.9715 2.81526 10.9368C2.78058 10.9022 2.72437 10.9022 2.68968 10.9368C2.54569 11.0809 2.58004 11.2304 2.61731 11.3887C2.50378 11.3517 2.38603 11.3791 2.32294 11.4587C2.29162 11.4984 2.23106 11.6098 2.34454 11.7876C2.37094 11.8289 2.4255 11.8409 2.46717 11.8149C2.50856 11.7885 2.52061 11.7335 2.49422 11.6923C2.45165 11.6253 2.45039 11.584 2.46229 11.5689C2.47636 11.5511 2.51995 11.5419 2.56561 11.5578C2.59509 11.568 2.66362 11.6034 2.66362 11.7103C2.66362 11.7956 2.62415 11.8739 2.55534 11.9247C2.48639 11.9757 2.39714 11.9901 2.31112 11.9634C2.2049 11.9309 2.1307 11.819 2.1307 11.6912C2.1307 11.5998 2.1503 11.5073 2.18751 11.4237L2.76918 10.115C2.817 10.0075 2.84128 9.89309 2.84128 9.77534C2.84128 9.62379 2.77237 9.48541 2.6639 9.40095C2.77233 9.31648 2.84128 9.1781 2.84128 9.02656C2.84128 8.90876 2.81695 8.79443 2.76918 8.6869L2.18751 7.3782C2.15034 7.29458 2.1307 7.20214 2.1307 7.11068C2.1307 6.98281 2.20486 6.87097 2.31112 6.83853C2.39751 6.81181 2.48644 6.8262 2.55534 6.8772C2.62415 6.92806 2.66362 7.00625 2.66362 7.09161C2.66362 7.19848 2.59509 7.23382 2.56561 7.24409C2.52 7.26007 2.47631 7.25065 2.46229 7.23298C2.45039 7.21789 2.45165 7.17659 2.49422 7.10961C2.52061 7.06831 2.50856 7.01333 2.46717 6.98698C2.42569 6.96097 2.37098 6.97292 2.34454 7.01422C2.23111 7.19206 2.29162 7.30339 2.32294 7.34314C2.38608 7.42273 2.50378 7.45015 2.61731 7.41317C2.58 7.57137 2.54569 7.72095 2.68968 7.865C2.70703 7.88234 2.72976 7.89101 2.7525 7.89101C2.77523 7.89101 2.79797 7.88234 2.81531 7.865C2.85 7.83031 2.85 7.77411 2.81531 7.73942C2.7442 7.66831 2.75343 7.60986 2.79093 7.45128C2.81339 7.35622 2.84133 7.23772 2.84133 7.09165C2.84133 6.99448 2.80715 6.90153 2.74968 6.82517H2.75254C2.80162 6.82517 2.84137 6.78547 2.84137 6.73634C2.84137 6.68726 2.80167 6.64751 2.75254 6.64751H2.74968C2.8072 6.57115 2.84133 6.4783 2.84133 6.38103C2.84104 6.23473 2.81311 6.11623 2.7907 6.02117ZM1.8893 5.64266C1.85775 5.54797 1.86876 5.49402 1.88958 5.47508C1.90317 5.46223 1.9238 5.46275 1.93687 5.46866C1.9529 5.47578 1.9529 5.48708 1.9529 5.49261C1.9529 5.54169 1.99261 5.58144 2.04173 5.58144C2.09081 5.58144 2.13056 5.54173 2.13056 5.49261C2.13056 5.48708 2.13056 5.47578 2.14659 5.46866C2.15944 5.46275 2.17992 5.46223 2.19389 5.47508C2.2147 5.49402 2.22572 5.54797 2.19417 5.64266C2.1712 5.71133 2.08809 5.89011 2.04178 5.98714C1.9964 5.89236 1.9124 5.7118 1.8893 5.64266ZM2.04169 9.30757C2.06719 9.34221 2.09601 9.37446 2.13108 9.40071C2.09601 9.42701 2.06719 9.45921 2.04169 9.49385C2.01619 9.45921 1.98736 9.42696 1.9523 9.40071C1.98736 9.37442 2.01619 9.34226 2.04169 9.30757ZM2.04169 14.6369C2.06719 14.6715 2.09601 14.7038 2.13108 14.73C2.09601 14.7563 2.06719 14.7885 2.04169 14.8232C2.01619 14.7885 1.98736 14.7563 1.9523 14.73C1.98736 14.7037 2.01619 14.6716 2.04169 14.6369ZM2.19403 18.4881C2.22558 18.5828 2.21456 18.6368 2.19375 18.6557C2.17978 18.6684 2.1593 18.6678 2.14645 18.6621C2.13042 18.655 2.13042 18.6437 2.13042 18.6382C2.13042 18.5891 2.09072 18.5493 2.04159 18.5493C1.99247 18.5493 1.95276 18.589 1.95276 18.6382C1.95276 18.6437 1.95276 18.655 1.93673 18.6621C1.9237 18.6678 1.90308 18.6684 1.88944 18.6557C1.86862 18.6368 1.85761 18.5828 1.88916 18.4881C1.91212 18.4194 1.99523 18.2407 2.04155 18.1436C2.08692 18.2384 2.17092 18.419 2.19403 18.4881ZM2.13023 17.3947C2.09662 17.4208 2.06681 17.4521 2.04169 17.4875C2.01661 17.4521 1.98675 17.4209 1.95314 17.3947C1.98675 17.3685 2.01656 17.3372 2.04169 17.3018C2.06676 17.3372 2.09658 17.3685 2.13023 17.3947ZM2.60658 15.3719L2.04164 16.6429L1.4767 15.3719C1.43953 15.2882 1.41989 15.1958 1.41989 15.1044C1.41989 14.9765 1.49405 14.8646 1.60031 14.8322C1.68666 14.8055 1.77572 14.8199 1.84453 14.8709C1.91334 14.9217 1.95281 14.9999 1.95281 15.0853C1.95281 15.1922 1.88428 15.2275 1.8548 15.2378C1.809 15.2537 1.76545 15.2446 1.75148 15.2267C1.73958 15.2116 1.74084 15.1703 1.78341 15.1033C1.8098 15.062 1.79775 15.007 1.75636 14.9807C1.71487 14.9546 1.66017 14.9668 1.63373 15.0079C1.5203 15.1858 1.58081 15.2971 1.61212 15.3369C1.67644 15.418 1.79742 15.446 1.91311 15.4055C1.92628 15.401 1.93964 15.3953 1.95281 15.3886V15.6132C1.95281 15.6132 1.95267 15.6131 1.95267 15.6131C1.95 15.5663 1.91128 15.5294 1.86403 15.5294C1.81495 15.5294 1.7752 15.5691 1.7752 15.6182C1.7752 15.6762 1.8157 15.7767 1.95281 15.8078V15.9735C1.95281 16.0226 1.99251 16.0623 2.04164 16.0623C2.09076 16.0623 2.13047 16.0226 2.13047 15.9735V15.8078C2.26758 15.7767 2.30808 15.6762 2.30808 15.6182C2.30808 15.5692 2.26847 15.5265 2.21944 15.5265C2.17036 15.5265 2.1308 15.5633 2.1308 15.6124C2.13075 15.6125 2.13047 15.6128 2.13042 15.6129V15.3887C2.14359 15.3954 2.15695 15.4011 2.17012 15.4056C2.28581 15.446 2.40675 15.4181 2.47111 15.3369C2.50242 15.2972 2.56298 15.1859 2.4495 15.008C2.42311 14.9667 2.36831 14.9546 2.32687 14.9807C2.28548 15.0071 2.27344 15.0621 2.29983 15.1034C2.34239 15.1704 2.34365 15.2117 2.33175 15.2267C2.31769 15.2446 2.27414 15.2538 2.22844 15.2379C2.19895 15.2276 2.13042 15.1922 2.13042 15.0854C2.13042 15 2.16989 14.9218 2.2387 14.871C2.30765 14.82 2.3969 14.8054 2.48292 14.8323C2.58914 14.8647 2.66334 14.9766 2.66334 15.1045C2.66343 15.1958 2.64384 15.2883 2.60658 15.3719ZM2.60658 14.0882C2.64375 14.1718 2.66339 14.2642 2.66339 14.3557C2.66339 14.4835 2.58923 14.5954 2.48297 14.6278C2.39676 14.6547 2.30756 14.6402 2.23875 14.5892C2.16994 14.5383 2.13047 14.4601 2.13047 14.3747C2.13047 14.2679 2.199 14.2325 2.22848 14.2223C2.27419 14.2063 2.31778 14.2155 2.33179 14.2334C2.3437 14.2485 2.34244 14.2898 2.29987 14.3567C2.27348 14.398 2.28553 14.453 2.32692 14.4794C2.36864 14.5058 2.42339 14.4936 2.44954 14.4521C2.56298 14.2742 2.50247 14.1629 2.47115 14.1232C2.40679 14.042 2.28586 14.0144 2.17017 14.0545C2.157 14.059 2.14364 14.0648 2.13047 14.0714V13.8468L2.13061 13.847C2.13328 13.8937 2.172 13.9307 2.21925 13.9307C2.26833 13.9307 2.30808 13.891 2.30808 13.8418C2.30808 13.7839 2.26758 13.6834 2.13047 13.6523V13.4866C2.13047 13.4375 2.09076 13.3977 2.04164 13.3977C1.99251 13.3977 1.95281 13.4374 1.95281 13.4866V13.6523C1.8157 13.6834 1.7752 13.7839 1.7752 13.8418C1.7752 13.8909 1.81481 13.9336 1.86384 13.9336C1.91292 13.9336 1.95248 13.8968 1.95248 13.8477C1.95253 13.8475 1.95281 13.8473 1.95281 13.8473L1.95286 14.0714C1.93969 14.0647 1.92633 14.059 1.91315 14.0545C1.79747 14.0144 1.67648 14.042 1.61217 14.1231C1.58086 14.1628 1.5203 14.2742 1.63378 14.452C1.66017 14.4933 1.71497 14.5053 1.75641 14.4793C1.7978 14.4529 1.80984 14.398 1.78345 14.3567C1.74089 14.2897 1.73962 14.2484 1.75153 14.2333C1.7655 14.2155 1.80905 14.2063 1.85484 14.2222C1.88433 14.2324 1.95286 14.2678 1.95286 14.3747C1.95286 14.4601 1.91339 14.5383 1.84458 14.5891C1.77562 14.6401 1.68656 14.6547 1.60036 14.6278C1.49414 14.5953 1.41994 14.4835 1.41994 14.3556C1.41994 14.2642 1.43953 14.1717 1.47675 14.0881L2.04169 12.817L2.60658 14.0882ZM2.13023 12.0654C2.09662 12.0916 2.06681 12.1229 2.04169 12.1583C2.01661 12.1229 1.98675 12.0916 1.95314 12.0654C1.98675 12.0393 2.01656 12.0079 2.04169 11.9726C2.06676 12.0079 2.09658 12.0392 2.13023 12.0654ZM2.60658 10.0426L2.04164 11.3137L1.4767 10.0426C1.43953 9.95899 1.41989 9.86656 1.41989 9.7751C1.41989 9.64723 1.49405 9.53538 1.60031 9.50295C1.68666 9.47623 1.77572 9.49062 1.84453 9.54162C1.91334 9.59248 1.95281 9.67066 1.95281 9.75602C1.95281 9.8629 1.88428 9.89824 1.8548 9.90851C1.809 9.92463 1.76545 9.9153 1.75148 9.8974C1.73958 9.8823 1.74084 9.84101 1.78341 9.77402C1.8098 9.73273 1.79775 9.67774 1.75636 9.6514C1.71487 9.62524 1.66017 9.63734 1.63373 9.67868C1.5203 9.85652 1.58081 9.96785 1.61212 10.0076C1.67644 10.0888 1.79742 10.1165 1.91311 10.0763C1.92628 10.0717 1.93964 10.0661 1.95281 10.0594V10.284L1.95267 10.2837C1.95 10.2371 1.91128 10.2001 1.86403 10.2001C1.81495 10.2001 1.7752 10.2398 1.7752 10.2889C1.7752 10.3468 1.8157 10.4473 1.95281 10.4785V10.6442C1.95281 10.6932 1.99251 10.733 2.04164 10.733C2.09076 10.733 2.13047 10.6933 2.13047 10.6442V10.4785C2.26758 10.4473 2.30808 10.3468 2.30808 10.2889C2.30808 10.2398 2.26847 10.1971 2.21944 10.1971C2.17036 10.1971 2.1308 10.2339 2.1308 10.283C2.13075 10.2831 2.13047 10.2834 2.13047 10.2834L2.13042 10.0593C2.14359 10.066 2.15695 10.0717 2.17012 10.0762C2.28581 10.1164 2.40675 10.0887 2.47111 10.0076C2.50242 9.96785 2.56298 9.85648 2.4495 9.67863C2.42311 9.63715 2.36831 9.62506 2.32687 9.65135C2.28548 9.67774 2.27344 9.73273 2.29983 9.77398C2.34239 9.84096 2.34365 9.88226 2.33175 9.89735C2.31769 9.91521 2.27414 9.92463 2.22844 9.90846C2.19895 9.89824 2.13042 9.86285 2.13042 9.75598C2.13042 9.67062 2.16989 9.59238 2.2387 9.54157C2.30765 9.49057 2.3969 9.47618 2.48292 9.5029C2.58914 9.53534 2.66334 9.64723 2.66334 9.77505C2.66343 9.86655 2.64384 9.95899 2.60658 10.0426ZM2.60658 8.75885C2.64375 8.84248 2.66339 8.93492 2.66339 9.02637C2.66339 9.15424 2.58923 9.26609 2.48297 9.29852C2.39676 9.32543 2.30756 9.31085 2.23875 9.25985C2.16994 9.20899 2.13047 9.13081 2.13047 9.04545C2.13047 8.93857 2.199 8.90323 2.22848 8.89296C2.27419 8.87698 2.31778 8.88617 2.33179 8.90407C2.3437 8.91917 2.34244 8.96046 2.29987 9.02745C2.27348 9.06874 2.28553 9.12368 2.32692 9.15007C2.36864 9.17623 2.42339 9.16428 2.44954 9.12279C2.56298 8.94495 2.50247 8.83362 2.47115 8.79387C2.40679 8.71268 2.28586 8.68493 2.17017 8.7252C2.157 8.72974 2.14364 8.73542 2.13047 8.74212V8.51749C2.13047 8.51754 2.13061 8.51764 2.13061 8.51764C2.13328 8.56442 2.172 8.60131 2.21925 8.60131C2.26833 8.60131 2.30808 8.5616 2.30808 8.51248C2.30808 8.45454 2.26758 8.35404 2.13047 8.32292V8.15721C2.13047 8.10814 2.09076 8.06839 2.04164 8.06839C1.99251 8.06839 1.95281 8.10809 1.95281 8.15721V8.32292C1.8157 8.35404 1.7752 8.45454 1.7752 8.51248C1.7752 8.56156 1.81481 8.60426 1.86384 8.60426C1.91292 8.60426 1.95248 8.56746 1.95248 8.51839C1.95253 8.51824 1.95281 8.51801 1.95286 8.51787V8.74207C1.93969 8.73537 1.92633 8.7297 1.91315 8.72515C1.79747 8.68493 1.67648 8.71268 1.61217 8.79382C1.58086 8.83353 1.5203 8.9449 1.63378 9.12274C1.66017 9.16404 1.71497 9.17604 1.75641 9.15002C1.7978 9.12363 1.80984 9.06865 1.78345 9.0274C1.74089 8.96042 1.73962 8.91912 1.75153 8.90403C1.7655 8.88617 1.80905 8.87698 1.85484 8.89292C1.88433 8.90313 1.95286 8.93853 1.95286 9.0454C1.95286 9.13076 1.91339 9.20899 1.84458 9.25981C1.77562 9.31081 1.68656 9.32538 1.60036 9.29848C1.49414 9.26604 1.41994 9.15415 1.41994 9.02632C1.41994 8.93487 1.43953 8.84243 1.47675 8.75881L2.04169 7.48775L2.60658 8.75885ZM1.95309 6.73611C1.9867 6.70995 2.01651 6.67864 2.04164 6.64325C2.06672 6.67864 2.09658 6.7099 2.13019 6.73611C2.09658 6.76226 2.06676 6.79358 2.04164 6.82897C2.01656 6.79358 1.98675 6.76226 1.95309 6.73611Z" fill="#FFE15A"/>
<path d="M12.6925 13.1549C13.8731 13.1549 14.8302 12.1978 14.8302 11.0172C14.8302 9.83651 13.8731 8.87939 12.6925 8.87939C11.5118 8.87939 10.5547 9.83651 10.5547 11.0172C10.5547 12.1978 11.5118 13.1549 12.6925 13.1549Z" fill="#FFE15A"/>
<path d="M12.852 8.29158C12.852 8.38012 12.7802 8.45194 12.6916 8.45194C12.6031 8.45194 12.5312 8.38012 12.5312 8.29158C12.5312 8.20303 12.6916 7.81055 12.6916 7.81055C12.6916 7.81055 12.852 8.20303 12.852 8.29158Z" fill="#FFE15A"/>
<path d="M12.5312 13.7434C12.5312 13.6548 12.6031 13.583 12.6916 13.583C12.7802 13.583 12.852 13.6548 12.852 13.7434C12.852 13.8319 12.6916 14.2244 12.6916 14.2244C12.6916 14.2244 12.5312 13.832 12.5312 13.7434Z" fill="#FFE15A"/>
<path d="M15.4182 11.1779C15.3296 11.1779 15.2578 11.1061 15.2578 11.0175C15.2578 10.929 15.3296 10.8572 15.4182 10.8572C15.5067 10.8572 15.8992 11.0175 15.8992 11.0175C15.8992 11.0175 15.5067 11.1779 15.4182 11.1779Z" fill="#FFE15A"/>
<path d="M9.96541 10.8572C10.054 10.8572 10.1258 10.929 10.1258 11.0175C10.1258 11.1061 10.054 11.1779 9.96541 11.1779C9.87686 11.1779 9.48438 11.0175 9.48438 11.0175C9.48438 11.0175 9.87686 10.8572 9.96541 10.8572Z" fill="#FFE15A"/>
<path d="M14.7327 9.20332C14.6701 9.26594 14.5686 9.26594 14.506 9.20332C14.4433 9.14069 14.4433 9.03921 14.506 8.97654C14.5686 8.91386 14.9595 8.74976 14.9595 8.74976C14.9595 8.74976 14.7954 9.14069 14.7327 9.20332Z" fill="#FFE15A"/>
<path d="M10.6506 12.8314C10.7132 12.7688 10.8147 12.7688 10.8774 12.8314C10.94 12.894 10.94 12.9955 10.8774 13.0582C10.8147 13.1208 10.4238 13.2849 10.4238 13.2849C10.4238 13.2849 10.5879 12.8941 10.6506 12.8314Z" fill="#FFE15A"/>
<path d="M14.506 13.0584C14.4433 12.9958 14.4433 12.8943 14.506 12.8317C14.5686 12.769 14.6701 12.769 14.7327 12.8317C14.7954 12.8943 14.9595 13.2852 14.9595 13.2852C14.9595 13.2852 14.5686 13.121 14.506 13.0584Z" fill="#FFE15A"/>
<path d="M10.8774 8.97649C10.94 9.03911 10.94 9.14059 10.8774 9.20327C10.8148 9.26594 10.7133 9.26589 10.6506 9.20327C10.5879 9.14064 10.4238 8.74976 10.4238 8.74976C10.4238 8.74976 10.8148 8.91391 10.8774 8.97649Z" fill="#FFE15A"/>
<path d="M11.7971 8.4378C11.831 8.51965 11.7921 8.6134 11.7103 8.64729C11.6284 8.68118 11.5347 8.64232 11.5008 8.56047C11.4669 8.47863 11.4648 8.05469 11.4648 8.05469C11.4648 8.05469 11.7632 8.35596 11.7971 8.4378Z" fill="#FFE15A"/>
<path d="M13.5865 13.5972C13.5526 13.5154 13.5914 13.4216 13.6733 13.3877C13.7551 13.3538 13.8489 13.3927 13.8827 13.4745C13.9166 13.5564 13.9187 13.9803 13.9187 13.9803C13.9187 13.9803 13.6203 13.6791 13.5865 13.5972Z" fill="#FFE15A"/>
<path d="M15.2725 10.1223C15.1907 10.1562 15.0969 10.1173 15.063 10.0355C15.0291 9.95363 15.068 9.85988 15.1498 9.82599C15.2317 9.7921 15.6556 9.79004 15.6556 9.79004C15.6556 9.79004 15.3544 10.0884 15.2725 10.1223Z" fill="#FFE15A"/>
<path d="M10.1116 11.9124C10.1935 11.8785 10.2872 11.9174 10.3211 11.9992C10.355 12.0811 10.3161 12.1748 10.2343 12.2087C10.1524 12.2426 9.72852 12.2447 9.72852 12.2447C9.72852 12.2447 10.0298 11.9463 10.1116 11.9124Z" fill="#FFE15A"/>
<path d="M13.8827 8.56042C13.8488 8.64226 13.755 8.68108 13.6733 8.64723C13.5914 8.61334 13.5526 8.51955 13.5864 8.43775C13.6203 8.35595 13.9186 8.05469 13.9186 8.05469C13.9186 8.05469 13.9166 8.47862 13.8827 8.56042Z" fill="#FFE15A"/>
<path d="M11.5008 13.4745C11.5346 13.3927 11.6284 13.3539 11.7102 13.3877C11.7921 13.4216 11.8309 13.5154 11.7971 13.5972C11.7632 13.679 11.4648 13.9802 11.4648 13.9802C11.4648 13.9802 11.4669 13.5564 11.5008 13.4745Z" fill="#FFE15A"/>
<path d="M15.1498 12.2087C15.068 12.1748 15.0292 12.081 15.063 11.9992C15.0969 11.9173 15.1907 11.8785 15.2725 11.9124C15.3543 11.9462 15.6555 12.2446 15.6555 12.2446C15.6555 12.2446 15.2316 12.2426 15.1498 12.2087Z" fill="#FFE15A"/>
<path d="M10.2342 9.82619C10.3161 9.86008 10.3549 9.95388 10.3211 10.0357C10.2872 10.1175 10.1934 10.1563 10.1116 10.1225C10.0298 10.0886 9.72852 9.79028 9.72852 9.79028C9.72852 9.79028 10.1525 9.79225 10.2342 9.82619Z" fill="#FFE15A"/>
<path d="M12.317 8.31284C12.3343 8.3997 12.2779 8.48412 12.191 8.50137C12.1041 8.51866 12.0197 8.46227 12.0024 8.37537C11.9851 8.28851 12.0659 7.87231 12.0659 7.87231C12.0659 7.87231 12.2997 8.22598 12.317 8.31284Z" fill="#FFE15A"/>
<path d="M13.0676 13.7222C13.0503 13.6353 13.1067 13.5509 13.1936 13.5336C13.2805 13.5163 13.3648 13.5727 13.3821 13.6596C13.3994 13.7465 13.3187 14.1627 13.3187 14.1627C13.3187 14.1627 13.0848 13.809 13.0676 13.7222Z" fill="#FFE15A"/>
<path d="M15.3967 10.6429C15.3099 10.6602 15.2254 10.6038 15.2082 10.5169C15.1909 10.43 15.2473 10.3456 15.3342 10.3284C15.4211 10.3111 15.8373 10.3918 15.8373 10.3918C15.8373 10.3918 15.4836 10.6256 15.3967 10.6429Z" fill="#FFE15A"/>
<path d="M9.98741 11.392C10.0743 11.3747 10.1587 11.4311 10.1759 11.518C10.1932 11.6049 10.1368 11.6893 10.0499 11.7066C9.96308 11.7239 9.54688 11.6432 9.54688 11.6432C9.54688 11.6432 9.90055 11.4093 9.98741 11.392Z" fill="#FFE15A"/>
<path d="M14.3406 8.84016C14.2914 8.9138 14.1918 8.93358 14.1181 8.88436C14.0445 8.83515 14.0247 8.73558 14.0739 8.66195C14.1231 8.58831 14.4745 8.35107 14.4745 8.35107C14.4745 8.35107 14.3897 8.76648 14.3406 8.84016Z" fill="#FFE15A"/>
<path d="M11.0441 13.1948C11.0933 13.1212 11.1929 13.1014 11.2665 13.1506C11.3401 13.1998 11.3599 13.2994 11.3107 13.373C11.2615 13.4467 10.9102 13.6839 10.9102 13.6839C10.9102 13.6839 10.9949 13.2685 11.0441 13.1948Z" fill="#FFE15A"/>
<path d="M14.8701 12.6653C14.7965 12.6161 14.7767 12.5165 14.8259 12.4429C14.8751 12.3692 14.9747 12.3494 15.0483 12.3986C15.122 12.4478 15.3592 12.7992 15.3592 12.7992C15.3592 12.7992 14.9437 12.7145 14.8701 12.6653Z" fill="#FFE15A"/>
<path d="M10.5145 9.36976C10.5881 9.41893 10.6079 9.51854 10.5587 9.59218C10.5095 9.66582 10.4099 9.6856 10.3363 9.63638C10.2626 9.58716 10.0254 9.23584 10.0254 9.23584C10.0254 9.23584 10.4409 9.32059 10.5145 9.36976Z" fill="#FFE15A"/>
<path d="M11.3107 8.6619C11.3599 8.73554 11.3401 8.8351 11.2665 8.88432C11.1929 8.93353 11.0933 8.91371 11.0441 8.84011C10.9949 8.76647 10.9102 8.35107 10.9102 8.35107C10.9102 8.35107 11.2615 8.5883 11.3107 8.6619Z" fill="#FFE15A"/>
<path d="M14.0739 13.373C14.0247 13.2993 14.0445 13.1998 14.1181 13.1506C14.1917 13.1014 14.2913 13.1212 14.3405 13.1948C14.3897 13.2684 14.4745 13.6838 14.4745 13.6838C14.4745 13.6838 14.1231 13.4466 14.0739 13.373Z" fill="#FFE15A"/>
<path d="M15.0483 9.63638C14.9746 9.68555 14.8751 9.66577 14.8259 9.59218C14.7767 9.51854 14.7965 9.41898 14.8701 9.36976C14.9437 9.32059 15.3591 9.23584 15.3591 9.23584C15.3591 9.23584 15.1219 9.58721 15.0483 9.63638Z" fill="#FFE15A"/>
<path d="M10.3362 12.3986C10.4099 12.3494 10.5094 12.3692 10.5586 12.4428C10.6078 12.5165 10.588 12.616 10.5144 12.6652C10.4408 12.7144 10.0254 12.7992 10.0254 12.7992C10.0254 12.7992 10.2626 12.4478 10.3362 12.3986Z" fill="#FFE15A"/>
<path d="M13.3821 8.37537C13.3648 8.46223 13.2804 8.51867 13.1936 8.50137C13.1067 8.48408 13.0503 8.3997 13.0676 8.31284C13.0849 8.22598 13.3187 7.87231 13.3187 7.87231C13.3187 7.87231 13.3993 8.28852 13.3821 8.37537Z" fill="#FFE15A"/>
<path d="M12.0024 13.6596C12.0197 13.5728 12.1041 13.5163 12.191 13.5336C12.2778 13.5509 12.3343 13.6353 12.317 13.7222C12.2997 13.809 12.0658 14.1627 12.0658 14.1627C12.0658 14.1627 11.9852 13.7465 12.0024 13.6596Z" fill="#FFE15A"/>
<path d="M15.3342 11.7063C15.2473 11.689 15.1909 11.6047 15.2082 11.5178C15.2255 11.4309 15.3099 11.3745 15.3967 11.3918C15.4836 11.4091 15.8373 11.6429 15.8373 11.6429C15.8373 11.6429 15.4211 11.7236 15.3342 11.7063Z" fill="#FFE15A"/>
<path d="M10.0499 10.3283C10.1368 10.3456 10.1932 10.43 10.1759 10.5169C10.1586 10.6037 10.0743 10.6602 9.9874 10.6429C9.90055 10.6256 9.54688 10.3918 9.54688 10.3918C9.54688 10.3918 9.96308 10.3111 10.0499 10.3283Z" fill="#FFE15A"/>
<path d="M17.7205 11.5801C17.6578 11.5537 17.5863 11.5839 17.5602 11.6462C17.5602 11.6464 17.5602 11.6464 17.5602 11.6464C17.5597 11.6476 17.5573 11.6534 17.5531 11.6632C17.4604 11.8797 17.2687 12.196 17.0751 12.4937C17.2554 11.9132 17.4203 11.2932 17.4318 11.2496C17.449 11.1845 17.4104 11.1177 17.3454 11.1C17.2803 11.0825 17.2134 11.1204 17.1951 11.1852C17.111 11.4867 16.9389 11.8835 16.7802 12.2194C16.8093 11.8449 16.8148 11.4979 16.8151 11.4728C16.8161 11.4065 16.7641 11.3516 16.6978 11.3485C16.6354 11.3504 16.5752 11.3959 16.5703 11.4622C16.4133 13.6217 14.3354 14.5876 14.1331 14.6765C14.0273 14.6871 13.5342 14.7426 13.0867 14.898C13.0359 14.9156 12.9927 14.9333 12.9497 14.9508C12.9337 14.9448 12.9166 14.9415 12.8985 14.9425C11.525 15.0419 10.4298 14.4785 9.64267 13.2714C9.04797 12.3593 8.86145 11.4019 8.85963 11.3923C8.84706 11.3258 8.78331 11.2829 8.71647 11.2946C8.64991 11.3073 8.60617 11.3712 8.61878 11.4378C8.62375 11.4642 8.7056 11.8821 8.93097 12.4321C8.62942 11.9561 8.41928 11.3794 8.34532 11.0791C8.34382 11.0731 8.33997 11.0686 8.33772 11.063C8.33425 11.0545 8.33135 11.046 8.32624 11.0387C8.32263 11.0335 8.31789 11.0297 8.31363 11.0251C8.30693 11.018 8.3005 11.0111 8.2923 11.0058C8.28761 11.0028 8.28236 11.0012 8.27725 10.9989C8.26821 10.9946 8.25935 10.9905 8.24927 10.9885C8.24229 10.9872 8.23516 10.9881 8.22789 10.9879C8.22054 10.9878 8.2136 10.986 8.20605 10.9873C8.20441 10.9876 8.20314 10.9887 8.2015 10.9891C8.19991 10.9894 8.19841 10.9889 8.19682 10.9892C8.19025 10.9908 8.18524 10.9949 8.17924 10.9975C8.1716 11.0008 8.16377 11.0033 8.15707 11.008C8.15046 11.0125 8.14554 11.0184 8.14005 11.0241C8.13457 11.0297 8.12885 11.0347 8.12454 11.0412C8.12018 11.0478 8.11783 11.0552 8.11474 11.0626C8.11179 11.0698 8.10836 11.0765 8.10682 11.0843C8.10522 11.0922 8.10593 11.1003 8.10597 11.1086C8.10597 11.1152 8.10414 11.1216 8.10532 11.1283C8.10579 11.1312 8.10672 11.1341 8.10724 11.137V11.1374C8.10738 11.1379 8.10757 11.1386 8.10771 11.1392C8.18355 11.5861 8.3643 12.0493 8.52775 12.4025C8.26821 12.108 8.05132 11.7687 7.97444 11.5677C7.97224 11.5619 7.96779 11.5578 7.96479 11.5525C7.96024 11.5444 7.95625 11.5361 7.95011 11.5294C7.94575 11.5247 7.94046 11.5216 7.93549 11.5176C7.92804 11.5116 7.92096 11.5055 7.91233 11.5014C7.9068 11.4988 7.9008 11.4979 7.89494 11.4961C7.8859 11.4934 7.87713 11.4904 7.86752 11.4898C7.85997 11.4893 7.85247 11.4912 7.84483 11.4922C7.83775 11.4931 7.83077 11.4922 7.82374 11.4944C7.82238 11.4948 7.82144 11.4959 7.82018 11.4963C7.81886 11.4968 7.81755 11.4965 7.81624 11.497C7.80958 11.4995 7.80485 11.5045 7.7989 11.508C7.79191 11.5121 7.78446 11.5155 7.77851 11.5209C7.77241 11.5263 7.76819 11.5331 7.76341 11.5397C7.75886 11.5458 7.7538 11.5513 7.75043 11.5581C7.74691 11.5653 7.7456 11.5731 7.74358 11.5808C7.74157 11.5884 7.7389 11.5954 7.73838 11.6033C7.73782 11.6112 7.73979 11.6192 7.74082 11.6272C7.74171 11.6341 7.74077 11.641 7.74293 11.6478C7.87633 12.0782 8.19714 12.5901 8.44849 12.9508C8.23905 12.7894 8.08511 12.6148 8.04044 12.5621C8.03561 12.5564 8.03088 12.5507 8.02605 12.5449C7.98283 12.493 7.90647 12.4855 7.85411 12.5279C7.80194 12.5705 7.79374 12.6472 7.83593 12.6996C7.83822 12.7025 7.84741 12.714 7.86279 12.7319C8.04672 12.9508 8.24711 13.155 8.42866 13.3275L8.18032 13.2216C8.12369 13.1972 8.05713 13.2192 8.02615 13.2731C7.99511 13.327 8.00913 13.3952 8.05882 13.4326C8.083 13.4505 8.52278 13.7791 8.9035 13.9733C8.8676 13.9754 8.82545 13.9728 8.7783 13.9692C8.72074 13.9637 8.66411 14.0049 8.6501 14.0633C8.63631 14.1219 8.66697 14.1818 8.72266 14.2048C8.73203 14.2086 8.84805 14.2565 8.9913 14.3075C8.95788 14.3211 8.9313 14.3491 8.92028 14.3855C8.90378 14.4399 8.92699 14.4988 8.9763 14.527C8.98914 14.5345 9.16244 14.6339 9.37689 14.7219C9.37117 14.7308 9.36648 14.7404 9.36297 14.7509C9.34619 14.8024 9.36536 14.8589 9.41003 14.8898C9.44725 14.9154 10.28 15.4805 11.2525 15.4805C11.3164 15.4805 11.3809 15.4781 11.4458 15.4729C11.5132 15.4676 11.5636 15.4085 11.5582 15.3409C11.5528 15.2734 11.4943 15.2224 11.4262 15.2286C10.8152 15.2784 10.2266 15.049 9.87653 14.8737C9.92275 14.8624 9.94933 14.8522 9.95594 14.8495C10.0099 14.8275 10.0411 14.7707 10.0305 14.7135C10.02 14.6563 9.97065 14.6144 9.91234 14.6131C9.77022 14.6102 9.57339 14.5411 9.40384 14.4668C9.46787 14.4347 9.50528 14.404 9.50856 14.4014C9.54545 14.3705 9.56102 14.3212 9.54845 14.2748C9.5358 14.2285 9.49717 14.1938 9.44983 14.1862C9.39775 14.1775 9.33283 14.1608 9.26486 14.1402C9.33095 14.1021 9.35908 14.0602 9.36986 14.0389C9.38688 14.0049 9.38725 13.9651 9.37094 13.9309C9.35453 13.8967 9.32331 13.872 9.28614 13.864C9.25408 13.8571 9.21775 13.8454 9.17852 13.8301C9.18569 13.8229 9.1923 13.8147 9.19764 13.8054C9.22886 13.7525 9.21597 13.6845 9.1675 13.6464C9.16497 13.6445 9.06981 13.5698 8.92572 13.4455C8.9486 13.4371 8.9688 13.4215 8.98342 13.4005C9.01431 13.356 9.0122 13.2963 8.97827 13.2542C8.97555 13.2508 8.88025 13.131 8.74891 12.949C8.79227 12.9827 8.83558 13.0171 8.87889 13.0449C8.89928 13.0578 8.92235 13.0643 8.94522 13.0643C8.97625 13.0643 9.00686 13.0526 9.03044 13.0298C9.04014 13.0204 9.04774 13.0097 9.05374 12.9982C9.12813 13.0776 9.20627 13.1498 9.28834 13.2113C9.29903 13.2193 9.31202 13.2192 9.32402 13.2232C9.3588 13.2815 9.39498 13.3399 9.43295 13.3983C10.1775 14.5439 11.2272 15.1575 12.4863 15.1943C12.3704 15.2647 12.2445 15.3375 12.0452 15.4151C12.0017 15.4321 11.9633 15.449 11.9247 15.466C11.906 15.4697 11.8885 15.4764 11.874 15.488C11.5261 15.649 11.3821 15.8081 11.3237 15.9194C11.2654 16.03 11.3157 16.1435 11.3869 16.2024C11.4091 16.2206 11.4372 16.23 11.4654 16.23C11.4849 16.23 11.5043 16.2256 11.5218 16.2168C11.5652 16.1952 11.5942 16.1495 11.5922 16.1014C11.5973 16.0959 11.6186 16.0782 11.6854 16.076C11.7341 16.0719 11.8366 16.0829 11.9562 16.0925C12.07 16.1019 12.2065 16.1125 12.3517 16.1199C12.2609 16.2258 12.1553 16.3485 12.1553 16.3485C12.1237 16.3853 12.1167 16.4375 12.1378 16.4813C12.159 16.5254 12.2046 16.5527 12.2525 16.551C12.3494 16.5476 12.4152 16.5457 12.4584 16.5448C12.4961 16.5942 12.5423 16.6138 12.5722 16.6214C12.6565 16.643 12.7405 16.6092 12.8038 16.5692C12.8517 16.6037 12.8996 16.6183 12.9376 16.6238C13.0232 16.6356 13.1025 16.6107 13.1598 16.5824C13.2192 16.6208 13.2773 16.6306 13.3217 16.6306C13.3223 16.6306 13.323 16.6306 13.3237 16.6306C13.4194 16.6301 13.5031 16.5839 13.5623 16.5386C13.6147 16.5697 13.6647 16.5797 13.7033 16.5815C13.7911 16.5846 13.8639 16.5508 13.9123 16.5192C14.085 16.5539 14.234 16.4725 14.3324 16.3827C14.3773 16.4088 14.42 16.4153 14.454 16.4136C14.5416 16.4105 14.6082 16.3573 14.651 16.3096C14.8469 16.3333 14.9875 16.2972 15.0687 16.2007C15.113 16.1483 15.131 16.0891 15.1359 16.0352C15.6794 16.0321 15.7285 15.7354 15.7325 15.6988C15.7361 15.6654 15.7259 15.6322 15.7043 15.6066C15.6827 15.581 15.6515 15.5652 15.6181 15.5633L14.1933 15.4776C14.1337 15.4733 14.0805 15.5132 14.0666 15.5715C14.0663 15.5724 14.0421 15.6629 13.9661 15.7353C13.8638 15.8329 13.6991 15.8845 13.52 15.9118C13.5207 15.8954 13.5184 15.8787 13.5121 15.8624C13.4877 15.7992 13.4166 15.7685 13.3536 15.7923C13.0594 15.9064 12.5832 15.8921 12.2106 15.8662C12.2678 15.8195 12.3366 15.7732 12.3916 15.743C12.438 15.7174 12.4629 15.665 12.4531 15.6128C12.446 15.5749 12.4186 15.5485 12.3855 15.5315C12.4891 15.4792 12.574 15.4287 12.6546 15.3796C12.7944 15.2939 12.9266 15.2131 13.1672 15.1296C13.6318 14.9682 14.1694 14.9191 14.1748 14.9186C14.187 14.9176 14.199 14.9145 14.2103 14.91C14.2294 14.902 15.7458 14.2668 16.4602 12.801C16.4509 12.8453 16.4408 12.8858 16.4299 12.9212C16.4113 12.9816 16.4414 13.046 16.4996 13.0704C16.5446 13.0893 16.5957 13.0794 16.6304 13.0474C16.5852 13.1664 16.5444 13.26 16.5111 13.3153C16.4771 13.3716 16.4935 13.4447 16.5482 13.481C16.561 13.4894 16.5748 13.4951 16.5889 13.4985C16.5336 13.5795 16.4775 13.6561 16.4216 13.7262C16.3844 13.7729 16.3865 13.8395 16.4254 13.8836C16.3294 13.9841 16.2443 14.067 16.1796 14.1197C16.1374 14.1539 16.1236 14.2112 16.143 14.26C16.0806 14.2957 16.0294 14.3209 15.9938 14.3316C15.9342 14.3496 15.8976 14.4097 15.9089 14.471C15.9147 14.5033 15.9329 14.5306 15.958 14.5486C15.8831 14.5687 15.801 14.5881 15.712 14.6057C15.6618 14.6158 15.6231 14.6558 15.6149 14.7063C15.6068 14.7568 15.6307 14.8071 15.6751 14.8325C15.6789 14.8346 15.7208 14.8584 15.7849 14.8856C15.5477 14.9812 15.1243 15.1059 14.4293 15.1744C14.362 15.1811 14.3127 15.2413 14.3194 15.3085C14.326 15.3759 14.3842 15.4225 14.4535 15.4187C15.7727 15.2882 16.18 14.958 16.1967 14.9439C16.2347 14.912 16.2498 14.86 16.2347 14.8126C16.2247 14.7813 16.2027 14.7559 16.1744 14.7413C16.5958 14.6086 16.7767 14.4618 16.7862 14.4539C16.8324 14.4156 16.8441 14.3493 16.8136 14.2973C16.783 14.2453 16.7192 14.2228 16.6635 14.2453C16.6478 14.2513 16.6228 14.2575 16.5912 14.2637C16.874 14.0701 17.1742 13.8394 17.3063 13.7364C17.3295 13.7192 17.3506 13.7027 17.3691 13.6871C17.4204 13.644 17.4276 13.5678 17.3853 13.5159C17.3433 13.4642 17.2667 13.4555 17.2143 13.497C17.1951 13.5121 17.1752 13.5276 17.1546 13.5437C17.0937 13.5889 17.0158 13.6402 16.9307 13.6928C17.2517 13.3284 17.5749 12.9332 17.6672 12.8198C17.6756 12.8094 17.6838 12.7992 17.6922 12.7889C17.7346 12.7362 17.7263 12.6591 17.6736 12.6167C17.6208 12.5736 17.5436 12.5825 17.5013 12.6349L17.5011 12.6352L17.501 12.6355C17.4987 12.6381 17.4883 12.651 17.4708 12.6726C17.3741 12.7906 17.2723 12.9049 17.1718 13.0116C17.4988 12.419 17.7464 11.8356 17.7827 11.7492C17.784 11.7461 17.7853 11.743 17.7866 11.7398C17.8125 11.6778 17.783 11.6059 17.7205 11.5801ZM11.9741 15.7129L12.0076 15.7172C11.9665 15.7556 11.9331 15.7987 11.9065 15.8431C11.8483 15.8384 11.7955 15.8343 11.7541 15.8325C11.8111 15.7952 11.8846 15.7547 11.9741 15.7129Z" fill="#FFE15A"/>
</svg>
