<svg width="18" height="17" viewBox="0 0 18 17" fill="none" xmlns="http://www.w3.org/2000/svg">
<path d="M1 16.2H17" stroke="#B7BCCC" stroke-width="1.5" stroke-linecap="round" stroke-linejoin="round"/>
<path d="M6.59961 8.19995H3.39961C2.95778 8.19995 2.59961 8.55812 2.59961 8.99995V15.4C2.59961 15.8418 2.95778 16.2 3.39961 16.2H6.59961C7.04144 16.2 7.39961 15.8418 7.39961 15.4V8.99995C7.39961 8.55812 7.04144 8.19995 6.59961 8.19995Z" stroke="#B7BCCC" stroke-width="1.5" stroke-linejoin="round"/>
<path d="M14.6004 1H8.20039C7.75856 1 7.40039 1.35817 7.40039 1.8V15.4C7.40039 15.8418 7.75856 16.2 8.20039 16.2H14.6004C15.0422 16.2 15.4004 15.8418 15.4004 15.4V1.8C15.4004 1.35817 15.0422 1 14.6004 1Z" stroke="#B7BCCC" stroke-width="1.5" stroke-linejoin="round"/>
<path d="M10.5996 12.2034H12.1996" stroke="#B7BCCC" stroke-width="1.5" stroke-linecap="round" stroke-linejoin="round"/>
<path d="M4.19922 12.2034H5.79922" stroke="#B7BCCC" stroke-width="1.5" stroke-linecap="round" stroke-linejoin="round"/>
<path d="M10.5996 8.60327H12.1996" stroke="#B7BCCC" stroke-width="1.5" stroke-linecap="round" stroke-linejoin="round"/>
<path d="M10.5996 5.00342H12.1996" stroke="#B7BCCC" stroke-width="1.5" stroke-linecap="round" stroke-linejoin="round"/>
</svg>
