<svg width="18" height="20" viewBox="0 0 18 20" fill="none" xmlns="http://www.w3.org/2000/svg">
<path d="M1 15L0.32918 14.6646C0.212934 14.8971 0.225357 15.1732 0.362012 15.3943C0.498667 15.6154 0.740067 15.75 1 15.75L1 15ZM17 15V15.75C17.2599 15.75 17.5013 15.6154 17.638 15.3943C17.7746 15.1732 17.7871 14.8971 17.6708 14.6646L17 15ZM3.75 7C3.75 4.10051 6.10051 1.75 9 1.75V0.25C5.27208 0.25 2.25 3.27208 2.25 7H3.75ZM9 1.75C11.8995 1.75 14.25 4.10051 14.25 7H15.75C15.75 3.27208 12.7279 0.25 9 0.25V1.75ZM2.25 7C2.25 8.88656 1.77601 10.8003 1.28849 12.2628C1.04622 12.9896 0.804042 13.595 0.623141 14.0171C0.532771 14.2279 0.457917 14.3925 0.4063 14.5031C0.380498 14.5584 0.360523 14.6002 0.347341 14.6274C0.340752 14.6411 0.335862 14.651 0.332794 14.6573C0.33126 14.6604 0.330182 14.6626 0.329574 14.6638C0.329271 14.6644 0.329085 14.6648 0.329018 14.6649C0.328985 14.665 0.328982 14.665 0.329008 14.6649C0.329022 14.6649 0.329065 14.6648 0.329071 14.6648C0.329122 14.6647 0.32918 14.6646 1 15C1.67082 15.3354 1.67089 15.3353 1.67097 15.3351C1.67101 15.335 1.6711 15.3349 1.67117 15.3347C1.67132 15.3344 1.6715 15.334 1.67171 15.3336C1.67213 15.3328 1.67267 15.3317 1.67332 15.3304C1.67464 15.3277 1.67643 15.3241 1.67868 15.3195C1.68318 15.3104 1.68952 15.2974 1.69758 15.2808C1.7137 15.2475 1.73669 15.1994 1.76557 15.1375C1.82333 15.0137 1.90473 14.8346 2.00186 14.6079C2.19596 14.155 2.45378 13.5104 2.71151 12.7372C3.22399 11.1997 3.75 9.11344 3.75 7H2.25ZM1 15.75H17V14.25H1V15.75ZM17 15C17.6708 14.6646 17.6709 14.6647 17.6709 14.6648C17.6709 14.6648 17.671 14.6649 17.671 14.6649C17.671 14.665 17.671 14.665 17.671 14.6649C17.6709 14.6648 17.6707 14.6644 17.6704 14.6638C17.6698 14.6626 17.6687 14.6604 17.6672 14.6573C17.6641 14.651 17.6592 14.6411 17.6527 14.6274C17.6395 14.6002 17.6195 14.5584 17.5937 14.5031C17.5421 14.3925 17.4672 14.2279 17.3769 14.0171C17.196 13.595 16.9538 12.9896 16.7115 12.2628C16.224 10.8003 15.75 8.88656 15.75 7H14.25C14.25 9.11344 14.776 11.1997 15.2885 12.7372C15.5462 13.5104 15.804 14.155 15.9981 14.6079C16.0953 14.8346 16.1767 15.0137 16.2344 15.1375C16.2633 15.1994 16.2863 15.2475 16.3024 15.2808C16.3105 15.2974 16.3168 15.3104 16.3213 15.3195C16.3236 15.3241 16.3254 15.3277 16.3267 15.3304C16.3273 15.3317 16.3279 15.3328 16.3283 15.3336C16.3285 15.334 16.3287 15.3344 16.3288 15.3347C16.3289 15.3349 16.329 15.335 16.329 15.3351C16.3291 15.3353 16.3292 15.3354 17 15ZM11.25 16C11.25 17.2426 10.2426 18.25 9 18.25V19.75C11.0711 19.75 12.75 18.0711 12.75 16H11.25ZM9 18.25C7.75736 18.25 6.75 17.2426 6.75 16H5.25C5.25 18.0711 6.92893 19.75 9 19.75V18.25ZM6.75 16V15H5.25V16H6.75ZM12.75 16V15H11.25V16H12.75Z" fill="#969CAF"/>
</svg>
