<svg width="18" height="18" viewBox="0 0 18 18" fill="none" xmlns="http://www.w3.org/2000/svg">
<path d="M7.33333 2.33333C7.33333 1.8731 7.70643 1.5 8.16667 1.5H9.83333C10.2936 1.5 10.6667 1.8731 10.6667 2.33333V2.80732C10.6667 3.16382 10.9059 3.47354 11.2352 3.61024C11.5646 3.74699 11.9481 3.69487 12.2002 3.44269L12.5355 3.10742C12.8609 2.78199 13.3886 2.78199 13.714 3.10742L14.8925 4.28594C15.218 4.61137 15.218 5.13901 14.8925 5.46445L14.5573 5.79967C14.3051 6.05186 14.253 6.43539 14.3897 6.76479C14.5265 7.09406 14.8362 7.33333 15.1927 7.33333L15.6667 7.33333C16.1269 7.33333 16.5 7.70643 16.5 8.16667V9.83333C16.5 10.2936 16.1269 10.6667 15.6667 10.6667H15.1927C14.8362 10.6667 14.5265 10.9059 14.3898 11.2352C14.253 11.5646 14.3051 11.9481 14.5573 12.2003L14.8925 12.5355C15.218 12.861 15.218 13.3886 14.8925 13.714L13.714 14.8925C13.3886 15.218 12.861 15.218 12.5355 14.8925L12.2003 14.5573C11.9481 14.3051 11.5646 14.253 11.2352 14.3898C10.9059 14.5265 10.6667 14.8362 10.6667 15.1927V15.6667C10.6667 16.1269 10.2936 16.5 9.83333 16.5H8.16667C7.70643 16.5 7.33333 16.1269 7.33333 15.6667V15.1927C7.33333 14.8362 7.09406 14.5265 6.76479 14.3897C6.43539 14.253 6.05186 14.3051 5.79966 14.5573L5.46443 14.8925C5.139 15.218 4.61136 15.218 4.28592 14.8925L3.10741 13.714C2.78197 13.3886 2.78197 12.861 3.10741 12.5355L3.44269 12.2002C3.69487 11.9481 3.74699 11.5646 3.61024 11.2352C3.47354 10.9059 3.16382 10.6667 2.80732 10.6667H2.33333C1.8731 10.6667 1.5 10.2936 1.5 9.83333V8.16667C1.5 7.70643 1.8731 7.33333 2.33333 7.33333L2.80731 7.33333C3.16382 7.33333 3.47354 7.09406 3.61024 6.7648C3.747 6.43542 3.69488 6.0519 3.44269 5.79972L3.10742 5.46445C2.78199 5.13901 2.78199 4.61137 3.10742 4.28594L4.28594 3.10743C4.61137 2.78199 5.13901 2.78199 5.46445 3.10743L5.79971 3.44269C6.0519 3.69488 6.43542 3.747 6.7648 3.61024C7.09406 3.47354 7.33333 3.16381 7.33333 2.8073V2.33333Z" stroke="#B7BCCC" stroke-width="1.5"/>
<path d="M10.6667 9C10.6667 9.92047 9.92047 10.6667 9 10.6667C8.07953 10.6667 7.33333 9.92047 7.33333 9C7.33333 8.07953 8.07953 7.33333 9 7.33333C9.92047 7.33333 10.6667 8.07953 10.6667 9Z" stroke="#B7BCCC" stroke-width="1.5"/>
</svg>
